<svg width="624" height="452" xmlns="http://www.w3.org/2000/svg" xmlns:xlink="http://www.w3.org/1999/xlink" overflow="hidden"><defs><clipPath id="clip0"><rect x="0" y="0" width="624" height="452"/></clipPath><clipPath id="clip1"><rect x="0" y="0" width="624" height="451"/></clipPath></defs><g clip-path="url(#clip0)"><g clip-path="url(#clip1)"><path d="M190.417 213.575 274.045 213.575 274.045 238.664 190.417 238.664Z" fill="#DD7E6B" fill-rule="nonzero" fill-opacity="1" transform="matrix(1 0 0 1.00153 -91.3485 -15.4629)"/><text fill="#000000" fill-opacity="1" font-family="Arial,Arial_MSFontService,sans-serif" font-style="normal" font-variant="normal" font-weight="700" font-stretch="normal" font-size="18" text-anchor="start" direction="ltr" writing-mode="lr-tb" unicode-bidi="normal" text-decoration="none" transform="matrix(0.643299 0 0 0.644286 103.49 216)">K8s Cluster-1</text><path d="M231.626 213.925 161.416 167.356 161.949 166.551 232.159 213.121ZM160.621 170.881 156.322 163.398 164.888 164.448Z" fill="#0E1A48" fill-rule="nonzero" fill-opacity="1" transform="matrix(1 0 0 1.00153 -91.3485 -15.4629)"/><path d="M309.427 213.575 393.056 213.575 393.056 238.664 309.427 238.664Z" fill="#D5A6BD" fill-rule="nonzero" fill-opacity="1" transform="matrix(1 0 0 1.00153 -91.3485 -15.4629)"/><text fill="#000000" fill-opacity="1" font-family="Arial,Arial_MSFontService,sans-serif" font-style="normal" font-variant="normal" font-weight="700" font-stretch="normal" font-size="18" text-anchor="start" direction="ltr" writing-mode="lr-tb" unicode-bidi="normal" text-decoration="none" transform="matrix(0.643299 0 0 0.644286 222.637 216)">K8s Cluster-2</text><path d="M350.962 213.844 314.455 169.94 315.197 169.323 351.704 213.227ZM312.681 173.088 310.713 164.685 318.617 168.153Z" fill="#0E1A48" fill-rule="nonzero" fill-opacity="1" transform="matrix(1 0 0 1.00153 -91.3485 -15.4629)"/><path d="M0.387589-0.287326 0.96224 0.487851 0.187064 1.0625-0.387589 0.287326ZM2.6862 2.81338 3.26085 3.58856 2.48568 4.16321 1.91102 3.38804ZM4.98481 5.91409 5.55946 6.68928 4.78429 7.26394 4.20963 6.48876ZM7.28343 9.01481 7.85809 9.78998 7.08291 10.3646 6.50826 9.58947ZM9.582 12.1155 10.1567 12.8907 9.38149 13.4653 8.80683 12.6902ZM11.8806 15.2162 12.4553 15.9914 11.6801 16.566 11.1055 15.7909ZM14.1793 18.3169 14.7539 19.0921 13.9788 19.6667 13.4041 18.8916ZM16.4778 21.4176 17.0525 22.1928 16.2773 22.7674 15.7027 21.9923ZM18.7765 24.5184 19.3511 25.2936 18.576 25.8681 18.0013 25.093ZM21.0751 27.6191 21.6497 28.3943 20.8745 28.9689 20.2999 28.1937ZM23.3737 30.7198 23.9483 31.495 23.1732 32.0696 22.5985 31.2944ZM25.6723 33.8205 26.247 34.5957 25.4718 35.1703 24.8972 34.3951ZM27.9709 36.9212 28.5456 37.6964 27.7704 38.271 27.1957 37.4958ZM30.2695 40.0219 30.8442 40.7971 30.069 41.3717 29.4944 40.5965ZM32.5682 43.1226 33.1428 43.8978 32.3677 44.4724 31.793 43.6972ZM34.8667 46.2233 35.4414 46.9985 34.6662 47.5731 34.0916 46.7979ZM37.1654 49.324 37.74 50.0992 36.9649 50.6739 36.3902 49.8986ZM39.464 52.4247 40.0386 53.1999 39.2634 53.7746 38.6888 52.9994ZM41.7626 55.5255 42.3372 56.3006 41.5621 56.8753 40.9874 56.1001ZM44.0612 58.6262 44.6359 59.4013 43.8607 59.976 43.286 59.2008ZM46.8484 56.7149 48.345 65.2151 40.647 61.3121Z" fill="#0E1A48" fill-rule="nonzero" fill-opacity="1" transform="matrix(-1 0 0 1.00153 480.642 67.0057)"/><path d="M571.893 69.4763 690.26 69.4763 690.26 95.2083 571.893 95.2083Z" fill="#D0E0E3" fill-rule="nonzero" fill-opacity="1" transform="matrix(1 0 0 1.00153 -91.3485 -15.4629)"/><text fill="#000000" fill-opacity="1" font-family="Arial,Arial_MSFontService,sans-serif" font-style="normal" font-variant="normal" font-weight="700" font-stretch="normal" font-size="20" text-anchor="start" direction="ltr" writing-mode="lr-tb" unicode-bidi="normal" text-decoration="none" transform="matrix(0.643299 0 0 0.644286 512.563 72)">Node list</text><path d="M251.53 19.299 369.897 19.299 369.897 60.4701 251.53 60.4701Z" fill="#EEEEEE" fill-rule="nonzero" fill-opacity="1" transform="matrix(1 0 0 1.00153 -91.3485 -15.4629)"/><text fill="#000000" fill-opacity="1" font-family="Arial,Arial_MSFontService,sans-serif" font-style="normal" font-variant="normal" font-weight="700" font-stretch="normal" font-size="20" text-anchor="start" direction="ltr" writing-mode="lr-tb" unicode-bidi="normal" text-decoration="none" transform="matrix(0.643299 0 0 0.644286 198.313 23)">Tenant<tspan fill="#000000" fill-opacity="1" font-family="Arial,Arial_MSFontService,sans-serif" font-style="normal" font-variant="normal" font-weight="700" font-stretch="normal" font-size="16" text-anchor="start" direction="ltr" writing-mode="lr-tb" unicode-bidi="normal" text-decoration="none" x="-17" y="20.1774">(Customer</tspan><tspan fill="#000000" fill-opacity="1" font-family="Arial,Arial_MSFontService,sans-serif" font-style="normal" font-variant="normal" font-weight="700" font-stretch="normal" font-size="16" text-anchor="start" direction="ltr" writing-mode="lr-tb" unicode-bidi="normal" text-decoration="none" x="63" y="20.1774">-</tspan><tspan fill="#000000" fill-opacity="1" font-family="Arial,Arial_MSFontService,sans-serif" font-style="normal" font-variant="normal" font-weight="700" font-stretch="normal" font-size="16" text-anchor="start" direction="ltr" writing-mode="lr-tb" unicode-bidi="normal" text-decoration="none" x="68.25" y="20.1774">1)</tspan></text><path d="M405.922 131.233 523.645 131.233 523.645 163.398 405.922 163.398Z" fill="#D0E0E3" fill-rule="nonzero" fill-opacity="1" transform="matrix(1 0 0 1.00153 -91.3485 -15.4629)"/><text fill="#000000" fill-opacity="1" font-family="Arial,Arial_MSFontService,sans-serif" font-style="normal" font-variant="normal" font-weight="700" font-stretch="normal" font-size="20" text-anchor="start" direction="ltr" writing-mode="lr-tb" unicode-bidi="normal" text-decoration="none" transform="matrix(0.643299 0 0 0.644286 331.049 137)">AppStack<tspan fill="#000000" fill-opacity="1" font-family="Arial,Arial_MSFontService,sans-serif" font-style="normal" font-variant="normal" font-weight="700" font-stretch="normal" font-size="20" text-anchor="start" direction="ltr" writing-mode="lr-tb" unicode-bidi="normal" text-decoration="none" x="97.5" y="0">site</tspan></text><path d="M310.915 60.0316 459.113 128.056 458.711 128.933 310.512 60.9086ZM459.353 124.449 464.759 131.178 456.133 131.465Z" fill="#0E1A48" fill-rule="nonzero" fill-opacity="1" transform="matrix(1 0 0 1.00153 -91.3485 -15.4629)"/><path d="M251.53 132.52 369.897 132.52 369.897 164.685 251.53 164.685Z" fill="#D0E0E3" fill-rule="nonzero" fill-opacity="1" transform="matrix(1 0 0 1.00153 -91.3485 -15.4629)"/><text fill="#000000" fill-opacity="1" font-family="Arial,Arial_MSFontService,sans-serif" font-style="normal" font-variant="normal" font-weight="700" font-stretch="normal" font-size="20" text-anchor="start" direction="ltr" writing-mode="lr-tb" unicode-bidi="normal" text-decoration="none" transform="matrix(0.643299 0 0 0.644286 176.952 139)">AppStack<tspan fill="#000000" fill-opacity="1" font-family="Arial,Arial_MSFontService,sans-serif" font-style="normal" font-variant="normal" font-weight="700" font-stretch="normal" font-size="20" text-anchor="start" direction="ltr" writing-mode="lr-tb" unicode-bidi="normal" text-decoration="none" x="97.5" y="0">site</tspan></text><path d="M0.482474-0.000353831 0.530334 65.2607-0.434613 65.2614-0.482474 0.000353831ZM3.90671 63.9719 0.0525783 71.6944-3.81288 63.9776Z" fill="#0E1A48" fill-rule="nonzero" fill-opacity="1" transform="matrix(-1 0 0 1.00153 219.418 45.1)"/><path d="M97.7814 131.233 215.505 131.233 215.505 163.398 97.7814 163.398Z" fill="#D0E0E3" fill-rule="nonzero" fill-opacity="1" transform="matrix(1 0 0 1.00153 -91.3485 -15.4629)"/><text fill="#000000" fill-opacity="1" font-family="Arial,Arial_MSFontService,sans-serif" font-style="normal" font-variant="normal" font-weight="700" font-stretch="normal" font-size="20" text-anchor="start" direction="ltr" writing-mode="lr-tb" unicode-bidi="normal" text-decoration="none" transform="matrix(0.643299 0 0 0.644286 22.8532 137)">AppStack<tspan fill="#000000" fill-opacity="1" font-family="Arial,Arial_MSFontService,sans-serif" font-style="normal" font-variant="normal" font-weight="700" font-stretch="normal" font-size="20" text-anchor="start" direction="ltr" writing-mode="lr-tb" unicode-bidi="normal" text-decoration="none" x="97.5" y="0">site</tspan></text><path d="M0.194008-0.44175 107.782 46.8089 107.394 47.6924-0.194008 0.44175ZM107.962 43.1993 113.478 49.8375 104.858 50.2673Z" fill="#0E1A48" fill-rule="nonzero" fill-opacity="1" transform="matrix(1 0 0 -1.00153 259.893 198.1)"/><path d="M122.87 321.65 206.499 321.65 206.499 347.381 122.87 347.381Z" fill="#DD7E6B" fill-rule="nonzero" fill-opacity="1" transform="matrix(1 0 0 1.00153 -91.3485 -15.4629)"/><text fill="#000000" fill-opacity="1" font-family="Arial,Arial_MSFontService,sans-serif" font-style="normal" font-variant="normal" font-weight="700" font-stretch="normal" font-size="18" text-anchor="start" direction="ltr" writing-mode="lr-tb" unicode-bidi="normal" text-decoration="none" transform="matrix(0.643299 0 0 0.644286 56.7673 324)">PSP<tspan fill="#000000" fill-opacity="1" font-family="Arial,Arial_MSFontService,sans-serif" font-style="normal" font-variant="normal" font-weight="700" font-stretch="normal" font-size="18" text-anchor="start" direction="ltr" writing-mode="lr-tb" unicode-bidi="normal" text-decoration="none" x="36" y="0">-</tspan><tspan fill="#000000" fill-opacity="1" font-family="Arial,Arial_MSFontService,sans-serif" font-style="normal" font-variant="normal" font-weight="700" font-stretch="normal" font-size="18" text-anchor="start" direction="ltr" writing-mode="lr-tb" unicode-bidi="normal" text-decoration="none" x="42" y="0">1</tspan></text><path d="M375.687 370.54 458.672 370.54 458.672 396.272 375.687 396.272Z" fill="#DD7E6B" fill-rule="nonzero" fill-opacity="1" transform="matrix(1 0 0 1.00153 -91.3485 -15.4629)"/><text fill="#000000" fill-opacity="1" font-family="Arial,Arial_MSFontService,sans-serif" font-style="normal" font-variant="normal" font-weight="700" font-stretch="normal" font-size="18" text-anchor="start" direction="ltr" writing-mode="lr-tb" unicode-bidi="normal" text-decoration="none" transform="matrix(0.643299 0 0 0.644286 288.567 373)">Cluster role-1</text><path d="M375.687 314.573 458.672 314.573 458.672 340.305 375.687 340.305Z" fill="#DD7E6B" fill-rule="nonzero" fill-opacity="1" transform="matrix(1 0 0 1.00153 -91.3485 -15.4629)"/><text fill="#000000" fill-opacity="1" font-family="Arial,Arial_MSFontService,sans-serif" font-style="normal" font-variant="normal" font-weight="700" font-stretch="normal" font-size="18" text-anchor="start" direction="ltr" writing-mode="lr-tb" unicode-bidi="normal" text-decoration="none" transform="matrix(0.643299 0 0 0.644286 293.713 310)">Cluster role <tspan fill="#000000" fill-opacity="1" font-family="Arial,Arial_MSFontService,sans-serif" font-style="normal" font-variant="normal" font-weight="700" font-stretch="normal" font-size="18" text-anchor="start" direction="ltr" writing-mode="lr-tb" unicode-bidi="normal" text-decoration="none" x="8.49996" y="21.7295">Binding</tspan><tspan fill="#000000" fill-opacity="1" font-family="Arial,Arial_MSFontService,sans-serif" font-style="normal" font-variant="normal" font-weight="700" font-stretch="normal" font-size="18" text-anchor="start" direction="ltr" writing-mode="lr-tb" unicode-bidi="normal" text-decoration="none" x="75.5" y="21.7295">-1</tspan></text><path d="M0.200896-0.43866 148.503 67.4801 148.101 68.3576-0.200896 0.43866ZM148.739 63.8737 154.151 70.5976 145.525 70.8922Z" fill="#0E1A48" fill-rule="nonzero" fill-opacity="1" transform="matrix(-1 0 0 1.00153 219.124 45.1)"/><path d="M578.326 313.287 661.311 313.287 661.311 339.019 578.326 339.019Z" fill="#DD7E6B" fill-rule="nonzero" fill-opacity="1" transform="matrix(1 0 0 1.00153 -91.3485 -15.4629)"/><text fill="#000000" fill-opacity="1" font-family="Arial,Arial_MSFontService,sans-serif" font-style="normal" font-variant="normal" font-weight="700" font-stretch="normal" font-size="18" text-anchor="start" direction="ltr" writing-mode="lr-tb" unicode-bidi="normal" text-decoration="none" transform="matrix(0.643299 0 0 0.644286 496.389 309)">Cluster role <tspan fill="#000000" fill-opacity="1" font-family="Arial,Arial_MSFontService,sans-serif" font-style="normal" font-variant="normal" font-weight="700" font-stretch="normal" font-size="18" text-anchor="start" direction="ltr" writing-mode="lr-tb" unicode-bidi="normal" text-decoration="none" x="8.50001" y="21.7295">Binding</tspan><tspan fill="#000000" fill-opacity="1" font-family="Arial,Arial_MSFontService,sans-serif" font-style="normal" font-variant="normal" font-weight="700" font-stretch="normal" font-size="18" text-anchor="start" direction="ltr" writing-mode="lr-tb" unicode-bidi="normal" text-decoration="none" x="75.5" y="21.7295">-2</tspan></text><path d="M209.072 321.65 292.058 321.65 292.058 346.738 209.072 346.738Z" fill="#DD7E6B" fill-rule="nonzero" fill-opacity="1" transform="matrix(1 0 0 1.00153 -91.3485 -15.4629)"/><text fill="#000000" fill-opacity="1" font-family="Arial,Arial_MSFontService,sans-serif" font-style="normal" font-variant="normal" font-weight="700" font-stretch="normal" font-size="18" text-anchor="start" direction="ltr" writing-mode="lr-tb" unicode-bidi="normal" text-decoration="none" transform="matrix(0.643299 0 0 0.644286 142.61 324)">PSP-2</text><path d="M579.612 367.967 662.598 367.967 662.598 393.699 579.612 393.699Z" fill="#DD7E6B" fill-rule="nonzero" fill-opacity="1" transform="matrix(1 0 0 1.00153 -91.3485 -15.4629)"/><text fill="#000000" fill-opacity="1" font-family="Arial,Arial_MSFontService,sans-serif" font-style="normal" font-variant="normal" font-weight="700" font-stretch="normal" font-size="18" text-anchor="start" direction="ltr" writing-mode="lr-tb" unicode-bidi="normal" text-decoration="none" transform="matrix(0.643299 0 0 0.644286 492.335 370)">Cluster role-2</text><path d="M326.153 422.647 409.781 422.647 409.781 448.379 326.153 448.379Z" fill="#DD7E6B" fill-rule="nonzero" fill-opacity="1" transform="matrix(1 0 0 1.00153 -91.3485 -15.4629)"/><text fill="#000000" fill-opacity="1" font-family="Arial,Arial_MSFontService,sans-serif" font-style="normal" font-variant="normal" font-weight="700" font-stretch="normal" font-size="18" text-anchor="start" direction="ltr" writing-mode="lr-tb" unicode-bidi="normal" text-decoration="none" transform="matrix(0.643299 0 0 0.644286 258.523 425)">User-1</text><path d="M420.718 422.647 504.346 422.647 504.346 448.379 420.718 448.379Z" fill="#DD7E6B" fill-rule="nonzero" fill-opacity="1" transform="matrix(1 0 0 1.00153 -91.3485 -15.4629)"/><text fill="#000000" fill-opacity="1" font-family="Arial,Arial_MSFontService,sans-serif" font-style="normal" font-variant="normal" font-weight="700" font-stretch="normal" font-size="18" text-anchor="start" direction="ltr" writing-mode="lr-tb" unicode-bidi="normal" text-decoration="none" transform="matrix(0.643299 0 0 0.644286 353.244 425)">User-2</text><path d="M531.365 422.647 614.994 422.647 614.994 448.379 531.365 448.379Z" fill="#DD7E6B" fill-rule="nonzero" fill-opacity="1" transform="matrix(1 0 0 1.00153 -91.3485 -15.4629)"/><text fill="#000000" fill-opacity="1" font-family="Arial,Arial_MSFontService,sans-serif" font-style="normal" font-variant="normal" font-weight="700" font-stretch="normal" font-size="18" text-anchor="start" direction="ltr" writing-mode="lr-tb" unicode-bidi="normal" text-decoration="none" transform="matrix(0.643299 0 0 0.644286 461.312 419)">Service <tspan fill="#000000" fill-opacity="1" font-family="Arial,Arial_MSFontService,sans-serif" font-style="normal" font-variant="normal" font-weight="700" font-stretch="normal" font-size="18" text-anchor="start" direction="ltr" writing-mode="lr-tb" unicode-bidi="normal" text-decoration="none" x="-12" y="21.7295">Account</tspan><tspan fill="#000000" fill-opacity="1" font-family="Arial,Arial_MSFontService,sans-serif" font-style="normal" font-variant="normal" font-weight="700" font-stretch="normal" font-size="18" text-anchor="start" direction="ltr" writing-mode="lr-tb" unicode-bidi="normal" text-decoration="none" x="60" y="21.7295">-1</tspan></text><path d="M626.573 422.647 709.559 422.647 709.559 448.379 626.573 448.379Z" fill="#DD7E6B" fill-rule="nonzero" fill-opacity="1" transform="matrix(1 0 0 1.00153 -91.3485 -15.4629)"/><text fill="#000000" fill-opacity="1" font-family="Arial,Arial_MSFontService,sans-serif" font-style="normal" font-variant="normal" font-weight="700" font-stretch="normal" font-size="18" text-anchor="start" direction="ltr" writing-mode="lr-tb" unicode-bidi="normal" text-decoration="none" transform="matrix(0.643299 0 0 0.644286 556.035 419)">Service <tspan fill="#000000" fill-opacity="1" font-family="Arial,Arial_MSFontService,sans-serif" font-style="normal" font-variant="normal" font-weight="700" font-stretch="normal" font-size="18" text-anchor="start" direction="ltr" writing-mode="lr-tb" unicode-bidi="normal" text-decoration="none" x="-12" y="21.7295">Account</tspan><tspan fill="#000000" fill-opacity="1" font-family="Arial,Arial_MSFontService,sans-serif" font-style="normal" font-variant="normal" font-weight="700" font-stretch="normal" font-size="18" text-anchor="start" direction="ltr" writing-mode="lr-tb" unicode-bidi="normal" text-decoration="none" x="60" y="21.7295">-2</tspan></text><path d="M0.374104-0.304676 63.6201 77.3535 62.8719 77.9627-0.374104 0.304676ZM65.4261 74.2232 67.3084 82.6466 59.4407 79.0981Z" fill="#0E1A48" fill-rule="nonzero" fill-opacity="1" transform="matrix(1 0 0 -1.00153 73.3361 306.34)"/><path d="M0.306047-0.372983 95.9461 78.1036 95.3337 78.8492-0.306047 0.372983ZM97.0938 74.6761 100.613 82.5571 92.197 80.644Z" fill="#0E1A48" fill-rule="nonzero" fill-opacity="1" transform="matrix(1 0 0 -1.00153 159.538 306.251)"/><path d="M417.125 314.662 238.005 241.542 238.369 240.648 417.489 313.768ZM237.919 245.155 232.231 238.664 240.837 238.008Z" fill="#0E1A48" fill-rule="nonzero" fill-opacity="1" transform="matrix(1 0 0 1.00153 -91.3485 -15.4629)"/><path d="M416.806 314.71 355.101 243.833 355.829 243.199 417.534 314.076ZM353.399 247.02 351.241 238.664 359.221 241.952Z" fill="#0E1A48" fill-rule="nonzero" fill-opacity="1" transform="matrix(1 0 0 1.00153 -91.3485 -15.4629)"/><path d="M619.718 313.87 357.31 240.854 357.569 239.924 619.977 312.941ZM357.643 244.452 351.241 238.664 359.713 237.015Z" fill="#0E1A48" fill-rule="nonzero" fill-opacity="1" transform="matrix(1 0 0 1.00153 -91.3485 -15.4629)"/><path d="M0.482474-1.5978e-06 0.482554 24.1577-0.482394 24.1577-0.482474 1.5978e-06ZM3.85987 22.8711 0.000101307 30.5907-3.85972 22.8711Z" fill="#0E1A48" fill-rule="nonzero" fill-opacity="1" transform="matrix(1 0 0 -1.00153 326.153 356.002)"/><path d="M620.75 368.267 619.898 345.465 620.863 345.429 621.714 368.231ZM616.571 346.877 620.14 339.019 624.286 346.589Z" fill="#0E1A48" fill-rule="nonzero" fill-opacity="1" transform="matrix(1 0 0 1.00153 -91.3485 -15.4629)"/><path d="M0.23047-0.423869 43.9214 23.3321 43.4604 24.1799-0.23047 0.423869ZM44.4043 19.7504 49.3424 26.8289 40.7168 26.5324Z" fill="#0E1A48" fill-rule="nonzero" fill-opacity="1" transform="matrix(1 0 0 -1.00153 276.619 408.287)"/><path d="M462.634 423.517 422.793 399.961 423.284 399.131 463.126 422.686ZM422.182 403.523 417.501 396.272 426.11 396.878Z" fill="#0E1A48" fill-rule="nonzero" fill-opacity="1" transform="matrix(1 0 0 1.00153 -91.3485 -15.4629)"/><path d="M0.251564-0.4117 42.5118 25.4108 42.0086 26.2342-0.251564 0.4117ZM43.1748 21.8581 47.7495 29.1767 39.1498 28.4453Z" fill="#0E1A48" fill-rule="nonzero" fill-opacity="1" transform="matrix(1 0 0 -1.00153 481.831 408.062)"/><path d="M667.5 423.286 625.994 397.503 626.502 396.683 668.008 422.466ZM625.305 401.051 620.784 393.699 629.377 394.493Z" fill="#0E1A48" fill-rule="nonzero" fill-opacity="1" transform="matrix(1 0 0 1.00153 -91.3485 -15.4629)"/><path d="M620.731 368.54 356.832 241.882 357.25 241.013 621.148 367.669ZM356.53 245.484 351.241 238.664 359.871 238.524Z" fill="#0E1A48" fill-rule="nonzero" fill-opacity="1" transform="matrix(1 0 0 1.00153 -91.3485 -15.4629)"/><path d="M375.297 383.349 236.423 243.568 237.107 242.888 375.982 382.669ZM234.933 246.861 232.231 238.664 240.41 241.42Z" fill="#0E1A48" fill-rule="nonzero" fill-opacity="1" transform="matrix(1 0 0 1.00153 -91.3485 -15.4629)"/><path d="M375.027 383.266 351.831 245.088 352.782 244.928 375.979 383.106ZM348.713 246.916 351.241 238.664 356.326 245.638Z" fill="#0E1A48" fill-rule="nonzero" fill-opacity="1" transform="matrix(1 0 0 1.00153 -91.3485 -15.4629)"/><path d="M0.271448-0.39887 1.06919 0.144026 0.526292 0.941764-0.271448 0.39887ZM3.46241 1.77271 4.26014 2.31561 3.71725 3.11335 2.91951 2.57046ZM6.65338 3.9443 7.45114 4.4872 6.90819 5.28494 6.11047 4.74204ZM9.84434 6.11589 10.6421 6.65879 10.0992 7.45654 9.30146 6.9136ZM13.0353 8.28749 13.8331 8.83037 13.2901 9.62813 12.4924 9.08518ZM16.2263 10.4591 17.024 11.002 16.4811 11.7997 15.6834 11.2568ZM19.4172 12.6307 20.215 13.1735 19.672 13.9713 18.8743 13.4284ZM22.6082 14.8022 23.4059 15.3451 22.863 16.1429 22.0653 15.6ZM25.7991 16.9738 26.5969 17.5167 26.054 18.3145 25.2562 17.7716ZM28.9901 19.1454 29.7878 19.6883 29.245 20.486 28.4472 19.9432ZM32.181 21.317 32.9788 21.8599 32.4359 22.6576 31.6382 22.1148ZM35.372 23.4886 36.1697 24.0315 35.6269 24.8292 34.8291 24.2863ZM38.5629 25.6602 39.3607 26.203 38.8178 27.0008 38.0201 26.4579ZM41.7539 27.8318 42.5517 28.3746 42.0088 29.1724 41.211 28.6295ZM44.1346 25.3667 48.345 32.9008 39.7915 31.7486Z" fill="#0E1A48" fill-rule="nonzero" fill-opacity="1" transform="matrix(-1 0 0 1.00153 480.642 99.22)"/><path d="M571.893 101.641 690.26 101.641 690.26 127.373 571.893 127.373Z" fill="#D0E0E3" fill-rule="nonzero" fill-opacity="1" transform="matrix(1 0 0 1.00153 -91.3485 -15.4629)"/><text fill="#000000" fill-opacity="1" font-family="Arial,Arial_MSFontService,sans-serif" font-style="normal" font-variant="normal" font-weight="700" font-stretch="normal" font-size="20" text-anchor="start" direction="ltr" writing-mode="lr-tb" unicode-bidi="normal" text-decoration="none" transform="matrix(0.643299 0 0 0.644286 509.427 104)">Interfaces</text><path d="M571.893 135.736 689.617 135.736 689.617 160.825 571.893 160.825Z" fill="#D0E0E3" fill-rule="nonzero" fill-opacity="1" transform="matrix(1 0 0 1.00153 -91.3485 -15.4629)"/><text fill="#000000" fill-opacity="1" font-family="Arial,Arial_MSFontService,sans-serif" font-style="normal" font-variant="normal" font-weight="700" font-stretch="normal" font-size="20" text-anchor="start" direction="ltr" writing-mode="lr-tb" unicode-bidi="normal" text-decoration="none" transform="matrix(0.643299 0 0 0.644286 515.379 138)">Storage</text><path d="M571.581 148.583 570.616 148.568 570.633 147.603 571.598 147.619ZM567.722 148.52 566.757 148.504 566.773 147.54 567.738 147.555ZM563.863 148.457 562.898 148.441 562.914 147.476 563.879 147.492ZM560.004 148.394 559.039 148.378 559.055 147.413 560.019 147.429ZM556.144 148.331 555.18 148.315 555.195 147.35 556.16 147.366ZM552.285 148.268 551.32 148.251 551.336 147.287 552.301 147.303ZM548.426 148.204 547.461 148.188 547.477 147.223 548.442 147.24ZM544.567 148.141 543.602 148.125 543.618 147.16 544.582 147.176ZM540.708 148.078 539.743 148.062 539.758 147.097 540.723 147.113ZM536.848 148.014 535.883 147.999 535.899 147.034 536.864 147.05ZM532.989 147.951 532.024 147.936 532.04 146.971 533.005 146.986ZM531.301 151.301 523.645 147.315 531.427 143.582Z" fill="#0E1A48" fill-rule="nonzero" fill-opacity="1" transform="matrix(1 0 0 1.00153 -91.3485 -15.4629)"/><path d="M571.893 168.544 689.617 168.544 689.617 194.276 571.893 194.276Z" fill="#D0E0E3" fill-rule="nonzero" fill-opacity="1" transform="matrix(1 0 0 1.00153 -91.3485 -15.4629)"/><text fill="#000000" fill-opacity="1" font-family="Arial,Arial_MSFontService,sans-serif" font-style="normal" font-variant="normal" font-weight="700" font-stretch="normal" font-size="20" text-anchor="start" direction="ltr" writing-mode="lr-tb" unicode-bidi="normal" text-decoration="none" transform="matrix(0.643299 0 0 0.644286 525.35 171)">GPU</text><path d="M571.893 200.066 689.617 200.066 689.617 225.798 571.893 225.798Z" fill="#D0E0E3" fill-rule="nonzero" fill-opacity="1" transform="matrix(1 0 0 1.00153 -91.3485 -15.4629)"/><text fill="#000000" fill-opacity="1" font-family="Arial,Arial_MSFontService,sans-serif" font-style="normal" font-variant="normal" font-weight="700" font-stretch="normal" font-size="20" text-anchor="start" direction="ltr" writing-mode="lr-tb" unicode-bidi="normal" text-decoration="none" transform="matrix(0.643299 0 0 0.644286 507.579 203)">VM enable</text><path d="M571.311 181.603 570.523 181.046 571.08 180.258 571.868 180.815ZM568.159 179.374 567.371 178.817 567.928 178.029 568.716 178.586ZM565.008 177.147 564.22 176.589 564.777 175.801 565.565 176.358ZM561.855 174.918 561.068 174.361 561.624 173.573 562.412 174.13ZM558.704 172.69 557.916 172.133 558.473 171.345 559.261 171.902ZM555.552 170.462 554.764 169.905 555.321 169.117 556.109 169.674ZM552.4 168.234 551.612 167.677 552.169 166.889 552.957 167.446ZM549.249 166.006 548.461 165.449 549.018 164.661 549.806 165.218ZM546.096 163.778 545.309 163.221 545.866 162.433 546.654 162.99ZM542.945 161.55 542.157 160.993 542.714 160.205 543.502 160.762ZM539.793 159.322 539.005 158.765 539.562 157.977 540.351 158.534ZM536.641 157.094 535.853 156.537 536.41 155.748 537.198 156.306ZM533.49 154.866 532.702 154.309 533.259 153.521 534.047 154.078ZM530.338 152.637 529.55 152.08 530.107 151.292 530.895 151.849ZM527.721 154.923 523.645 147.315 532.177 148.62Z" fill="#0E1A48" fill-rule="nonzero" fill-opacity="1" transform="matrix(1 0 0 1.00153 -91.3485 -15.4629)"/><path d="M571.2 213.16 570.631 212.381 571.409 211.811 571.979 212.59ZM568.921 210.044 568.352 209.265 569.131 208.695 569.7 209.474ZM566.643 206.929 566.073 206.15 566.853 205.58 567.422 206.359ZM564.365 203.813 563.795 203.034 564.574 202.464 565.143 203.243ZM562.086 200.697 561.516 199.919 562.295 199.349 562.865 200.128ZM559.808 197.582 559.238 196.803 560.017 196.233 560.587 197.012ZM557.529 194.466 556.96 193.687 557.739 193.118 558.308 193.897ZM555.251 191.351 554.681 190.572 555.46 190.002 556.03 190.781ZM552.973 188.235 552.403 187.456 553.182 186.887 553.751 187.665ZM550.694 185.12 550.124 184.341 550.903 183.771 551.473 184.55ZM548.416 182.004 547.846 181.225 548.625 180.656 549.195 181.434ZM546.137 178.889 545.568 178.11 546.347 177.54 546.916 178.319ZM543.858 175.773 543.289 174.994 544.068 174.424 544.638 175.203ZM541.581 172.657 541.011 171.879 541.79 171.309 542.359 172.088ZM539.302 169.541 538.732 168.763 539.511 168.193 540.081 168.972ZM537.023 166.426 536.454 165.647 537.232 165.078 537.802 165.857ZM534.745 163.31 534.176 162.531 534.955 161.962 535.524 162.741ZM532.466 160.195 531.897 159.416 532.676 158.847 533.245 159.626ZM530.188 157.079 529.618 156.3 530.397 155.731 530.967 156.51ZM527.91 153.964 527.34 153.185 528.119 152.616 528.689 153.394ZM525.087 155.825 523.645 147.315 531.318 151.268Z" fill="#0E1A48" fill-rule="nonzero" fill-opacity="1" transform="matrix(1 0 0 1.00153 -91.3485 -15.4629)"/></g></g></svg>