<svg width="624" height="410" xmlns="http://www.w3.org/2000/svg" xmlns:xlink="http://www.w3.org/1999/xlink" overflow="hidden"><defs><clipPath id="clip0"><rect x="0" y="0" width="624" height="410"/></clipPath></defs><g clip-path="url(#clip0)"><path d="M197.767 132.796 818.197 132.796 818.197 535.469 197.767 535.469Z" stroke="#000000" stroke-width="2.85584" stroke-linecap="butt" stroke-linejoin="round" stroke-miterlimit="10" stroke-opacity="1" fill="#FFFFFF" fill-rule="nonzero" fill-opacity="1" transform="matrix(1 0 0 1.00046 -195.625 -127.143)"/><path d="M213.474 164.924 802.49 164.924 802.49 524.046 213.474 524.046Z" stroke="#000000" stroke-width="2.85584" stroke-linecap="butt" stroke-linejoin="round" stroke-miterlimit="10" stroke-opacity="1" fill="#FFFFFF" fill-rule="nonzero" fill-opacity="1" transform="matrix(1 0 0 1.00046 -195.625 -127.143)"/><text fill="#741B47" fill-opacity="1" font-family="Arial,Arial_MSFontService,sans-serif" font-style="normal" font-variant="normal" font-weight="700" font-stretch="normal" font-size="24" text-anchor="start" direction="ltr" writing-mode="lr-tb" unicode-bidi="normal" text-decoration="none" transform="matrix(0.713959 0 0 0.714286 27.6616 59)">Namespace <tspan fill="#741B47" fill-opacity="1" font-family="Arial,Arial_MSFontService,sans-serif" font-style="normal" font-variant="normal" font-weight="700" font-stretch="normal" font-size="28" text-anchor="start" direction="ltr" writing-mode="lr-tb" unicode-bidi="normal" text-decoration="none" x="-17.0696" y="-44.8">Tenant</tspan></text><path d="M257.02 389.822 341.277 389.822C352.315 389.822 361.263 396.854 361.263 405.529 361.263 414.203 352.315 421.236 341.277 421.236L257.02 421.236C245.982 421.236 237.034 414.203 237.034 405.529 237.034 396.854 245.982 389.822 257.02 389.822Z" stroke="#2099D8" stroke-width="1.07094" stroke-linecap="butt" stroke-linejoin="round" stroke-miterlimit="10" stroke-opacity="1" fill="#2099D8" fill-rule="evenodd" fill-opacity="1" transform="matrix(1 0 0 1.00046 -195.625 -127.143)"/><text fill="#FFFFFF" fill-opacity="1" font-family="Arial,Arial_MSFontService,sans-serif" font-style="normal" font-variant="normal" font-weight="700" font-stretch="normal" font-size="20" text-anchor="start" direction="ltr" writing-mode="lr-tb" unicode-bidi="normal" text-decoration="none" transform="matrix(0.713959 0 0 0.714286 75.494 276)">Network <tspan fill="#FFFFFF" fill-opacity="1" font-family="Arial,Arial_MSFontService,sans-serif" font-style="normal" font-variant="normal" font-weight="700" font-stretch="normal" font-size="20" text-anchor="start" direction="ltr" writing-mode="lr-tb" unicode-bidi="normal" text-decoration="none" x="10.62" y="23.8">policy</tspan></text><path d="M257.02 219.899 341.277 219.899C352.315 219.899 361.263 232.526 361.263 248.101 361.263 263.676 352.315 276.302 341.277 276.302L257.02 276.302C245.982 276.302 237.034 263.676 237.034 248.101 237.034 232.526 245.982 219.899 257.02 219.899Z" stroke="#F37543" stroke-width="1.07094" stroke-linecap="butt" stroke-linejoin="round" stroke-miterlimit="10" stroke-opacity="1" fill="#F37543" fill-rule="evenodd" fill-opacity="1" transform="matrix(1 0 0 1.00046 -195.625 -127.143)"/><text fill="#FFFFFF" fill-opacity="1" font-family="Arial,Arial_MSFontService,sans-serif" font-style="normal" font-variant="normal" font-weight="700" font-stretch="normal" font-size="20" text-anchor="start" direction="ltr" writing-mode="lr-tb" unicode-bidi="normal" text-decoration="none" transform="matrix(0.713959 0 0 0.714286 82.2766 110)">Active <tspan fill="#FFFFFF" fill-opacity="1" font-family="Arial,Arial_MSFontService,sans-serif" font-style="normal" font-variant="normal" font-weight="700" font-stretch="normal" font-size="20" text-anchor="start" direction="ltr" writing-mode="lr-tb" unicode-bidi="normal" text-decoration="none" x="-9.5" y="23.8">Network </tspan><tspan fill="#FFFFFF" fill-opacity="1" font-family="Arial,Arial_MSFontService,sans-serif" font-style="normal" font-variant="normal" font-weight="700" font-stretch="normal" font-size="20" text-anchor="start" direction="ltr" writing-mode="lr-tb" unicode-bidi="normal" text-decoration="none" x="-7.63" y="47.6">Policies</tspan></text><path d="M444.097 341.272 609.706 341.272C631.401 341.272 648.989 345.747 648.989 351.268 648.989 356.788 631.401 361.263 609.706 361.263L444.097 361.263C422.402 361.263 404.815 356.788 404.815 351.268 404.815 345.747 422.402 341.272 444.097 341.272Z" stroke="#2099D8" stroke-width="1.07094" stroke-linecap="butt" stroke-linejoin="round" stroke-miterlimit="10" stroke-opacity="1" fill="#FFFFFF" fill-rule="evenodd" fill-opacity="1" transform="matrix(1 0 0 1.00046 -195.625 -127.143)"/><text fill="#000000" fill-opacity="1" font-family="Arial,Arial_MSFontService,sans-serif" font-style="normal" font-variant="normal" font-weight="400" font-stretch="normal" font-size="16" text-anchor="start" direction="ltr" writing-mode="lr-tb" unicode-bidi="normal" text-decoration="none" transform="matrix(0.713959 0 0 0.714286 220.668 229)">Policy-1: <tspan fill="#000000" fill-opacity="1" font-family="Arial,Arial_MSFontService,sans-serif" font-style="normal" font-variant="normal" font-weight="400" font-stretch="normal" font-size="14" text-anchor="start" direction="ltr" writing-mode="lr-tb" unicode-bidi="normal" text-decoration="none" x="66" y="0">local</tspan><tspan fill="#000000" fill-opacity="1" font-family="Arial,Arial_MSFontService,sans-serif" font-style="normal" font-variant="normal" font-weight="400" font-stretch="normal" font-size="14" text-anchor="start" direction="ltr" writing-mode="lr-tb" unicode-bidi="normal" text-decoration="none" x="94.5" y="0">--</tspan><tspan fill="#000000" fill-opacity="1" font-family="Arial,Arial_MSFontService,sans-serif" font-style="normal" font-variant="normal" font-weight="400" font-stretch="normal" font-size="14" text-anchor="start" direction="ltr" writing-mode="lr-tb" unicode-bidi="normal" text-decoration="none" x="104" y="0">ep, Ingress</tspan><tspan fill="#000000" fill-opacity="1" font-family="Arial,Arial_MSFontService,sans-serif" font-style="normal" font-variant="normal" font-weight="400" font-stretch="normal" font-size="14" text-anchor="start" direction="ltr" writing-mode="lr-tb" unicode-bidi="normal" text-decoration="none" x="173.5" y="0">-</tspan><tspan fill="#000000" fill-opacity="1" font-family="Arial,Arial_MSFontService,sans-serif" font-style="normal" font-variant="normal" font-weight="400" font-stretch="normal" font-size="14" text-anchor="start" direction="ltr" writing-mode="lr-tb" unicode-bidi="normal" text-decoration="none" x="178.25" y="0">rules, Egress</tspan><tspan fill="#000000" fill-opacity="1" font-family="Arial,Arial_MSFontService,sans-serif" font-style="normal" font-variant="normal" font-weight="400" font-stretch="normal" font-size="14" text-anchor="start" direction="ltr" writing-mode="lr-tb" unicode-bidi="normal" text-decoration="none" x="260" y="0">-</tspan><tspan fill="#000000" fill-opacity="1" font-family="Arial,Arial_MSFontService,sans-serif" font-style="normal" font-variant="normal" font-weight="400" font-stretch="normal" font-size="14" text-anchor="start" direction="ltr" writing-mode="lr-tb" unicode-bidi="normal" text-decoration="none" x="264.75" y="0">rules</tspan></text><path d="M444.097 365.547 609.706 365.547C631.401 365.547 648.989 370.022 648.989 375.542 648.989 381.063 631.401 385.538 609.706 385.538L444.097 385.538C422.402 385.538 404.815 381.063 404.815 375.542 404.815 370.022 422.402 365.547 444.097 365.547Z" stroke="#2099D8" stroke-width="1.07094" stroke-linecap="butt" stroke-linejoin="round" stroke-miterlimit="10" stroke-opacity="1" fill="#FFFFFF" fill-rule="evenodd" fill-opacity="1" transform="matrix(1 0 0 1.00046 -195.625 -127.143)"/><text fill="#000000" fill-opacity="1" font-family="Arial,Arial_MSFontService,sans-serif" font-style="normal" font-variant="normal" font-weight="400" font-stretch="normal" font-size="16" text-anchor="start" direction="ltr" writing-mode="lr-tb" unicode-bidi="normal" text-decoration="none" transform="matrix(0.713959 0 0 0.714286 220.668 253)">Policy-2: <tspan fill="#000000" fill-opacity="1" font-family="Arial,Arial_MSFontService,sans-serif" font-style="normal" font-variant="normal" font-weight="400" font-stretch="normal" font-size="14" text-anchor="start" direction="ltr" writing-mode="lr-tb" unicode-bidi="normal" text-decoration="none" x="66" y="0">local</tspan><tspan fill="#000000" fill-opacity="1" font-family="Arial,Arial_MSFontService,sans-serif" font-style="normal" font-variant="normal" font-weight="400" font-stretch="normal" font-size="14" text-anchor="start" direction="ltr" writing-mode="lr-tb" unicode-bidi="normal" text-decoration="none" x="94.5" y="0">--</tspan><tspan fill="#000000" fill-opacity="1" font-family="Arial,Arial_MSFontService,sans-serif" font-style="normal" font-variant="normal" font-weight="400" font-stretch="normal" font-size="14" text-anchor="start" direction="ltr" writing-mode="lr-tb" unicode-bidi="normal" text-decoration="none" x="104" y="0">ep, Ingress</tspan><tspan fill="#000000" fill-opacity="1" font-family="Arial,Arial_MSFontService,sans-serif" font-style="normal" font-variant="normal" font-weight="400" font-stretch="normal" font-size="14" text-anchor="start" direction="ltr" writing-mode="lr-tb" unicode-bidi="normal" text-decoration="none" x="173.5" y="0">-</tspan><tspan fill="#000000" fill-opacity="1" font-family="Arial,Arial_MSFontService,sans-serif" font-style="normal" font-variant="normal" font-weight="400" font-stretch="normal" font-size="14" text-anchor="start" direction="ltr" writing-mode="lr-tb" unicode-bidi="normal" text-decoration="none" x="178.25" y="0">rules, Egress</tspan><tspan fill="#000000" fill-opacity="1" font-family="Arial,Arial_MSFontService,sans-serif" font-style="normal" font-variant="normal" font-weight="400" font-stretch="normal" font-size="14" text-anchor="start" direction="ltr" writing-mode="lr-tb" unicode-bidi="normal" text-decoration="none" x="260" y="0">-</tspan><tspan fill="#000000" fill-opacity="1" font-family="Arial,Arial_MSFontService,sans-serif" font-style="normal" font-variant="normal" font-weight="400" font-stretch="normal" font-size="14" text-anchor="start" direction="ltr" writing-mode="lr-tb" unicode-bidi="normal" text-decoration="none" x="264.75" y="0">rules</tspan></text><path d="M444.097 436.229 609.706 436.229C631.401 436.229 648.989 440.704 648.989 446.224 648.989 451.745 631.401 456.22 609.706 456.22L444.097 456.22C422.402 456.22 404.815 451.745 404.815 446.224 404.815 440.704 422.402 436.229 444.097 436.229Z" stroke="#2099D8" stroke-width="1.07094" stroke-linecap="butt" stroke-linejoin="round" stroke-miterlimit="10" stroke-opacity="1" fill="#FFFFFF" fill-rule="evenodd" fill-opacity="1" transform="matrix(1 0 0 1.00046 -195.625 -127.143)"/><text fill="#000000" fill-opacity="1" font-family="Arial,Arial_MSFontService,sans-serif" font-style="normal" font-variant="normal" font-weight="400" font-stretch="normal" font-size="16" text-anchor="start" direction="ltr" writing-mode="lr-tb" unicode-bidi="normal" text-decoration="none" transform="matrix(0.713959 0 0 0.714286 220.668 324)">Policy-’n’: <tspan fill="#000000" fill-opacity="1" font-family="Arial,Arial_MSFontService,sans-serif" font-style="normal" font-variant="normal" font-weight="400" font-stretch="normal" font-size="14" text-anchor="start" direction="ltr" writing-mode="lr-tb" unicode-bidi="normal" text-decoration="none" x="73" y="0">local</tspan><tspan fill="#000000" fill-opacity="1" font-family="Arial,Arial_MSFontService,sans-serif" font-style="normal" font-variant="normal" font-weight="400" font-stretch="normal" font-size="14" text-anchor="start" direction="ltr" writing-mode="lr-tb" unicode-bidi="normal" text-decoration="none" x="101.5" y="0">--</tspan><tspan fill="#000000" fill-opacity="1" font-family="Arial,Arial_MSFontService,sans-serif" font-style="normal" font-variant="normal" font-weight="400" font-stretch="normal" font-size="14" text-anchor="start" direction="ltr" writing-mode="lr-tb" unicode-bidi="normal" text-decoration="none" x="111" y="0">ep, Ingress</tspan><tspan fill="#000000" fill-opacity="1" font-family="Arial,Arial_MSFontService,sans-serif" font-style="normal" font-variant="normal" font-weight="400" font-stretch="normal" font-size="14" text-anchor="start" direction="ltr" writing-mode="lr-tb" unicode-bidi="normal" text-decoration="none" x="180.5" y="0">-</tspan><tspan fill="#000000" fill-opacity="1" font-family="Arial,Arial_MSFontService,sans-serif" font-style="normal" font-variant="normal" font-weight="400" font-stretch="normal" font-size="14" text-anchor="start" direction="ltr" writing-mode="lr-tb" unicode-bidi="normal" text-decoration="none" x="185.25" y="0">rules, Egress</tspan><tspan fill="#000000" fill-opacity="1" font-family="Arial,Arial_MSFontService,sans-serif" font-style="normal" font-variant="normal" font-weight="400" font-stretch="normal" font-size="14" text-anchor="start" direction="ltr" writing-mode="lr-tb" unicode-bidi="normal" text-decoration="none" x="267" y="0">-</tspan><tspan fill="#000000" fill-opacity="1" font-family="Arial,Arial_MSFontService,sans-serif" font-style="normal" font-variant="normal" font-weight="400" font-stretch="normal" font-size="14" text-anchor="start" direction="ltr" writing-mode="lr-tb" unicode-bidi="normal" text-decoration="none" x="271.75" y="0">rules</tspan></text><path d="M361.263 404.993 382.87 404.993C383.165 404.993 383.405 405.233 383.405 405.529L383.405 446.106 382.87 445.571 397.332 445.571 397.332 446.642 382.87 446.642C382.574 446.642 382.334 446.402 382.334 446.106L382.334 405.529 382.87 406.064 361.263 406.064ZM395.904 441.823 404.472 446.106 395.904 450.39Z" fill="#2099D8" fill-rule="nonzero" fill-opacity="1" transform="matrix(1 0 0 1.00046 -195.625 -127.143)"/><path d="M0-0.535469 21.6065-0.535469C21.9022-0.535469 22.1419-0.295732 22.1419 0L22.1419 29.9188 21.6065 29.3833 36.069 29.3833 36.069 30.4543 21.6065 30.4543C21.3107 30.4543 21.071 30.2145 21.071 29.9188L21.071 0 21.6065 0.535469 0 0.535469ZM34.6411 25.635 43.2086 29.9188 34.6411 34.2026Z" fill="#2099D8" fill-rule="nonzero" fill-opacity="1" transform="matrix(1 -1.22521e-16 -1.22465e-16 -1.00046 165.638 278.504)"/><path d="M0-0.535469 21.6064-0.535469C21.9022-0.535469 22.1419-0.295732 22.1419 0L22.1419 54.3395 21.6064 53.8041 36.069 53.8041 36.069 54.875 21.6064 54.875C21.3107 54.875 21.0709 54.6353 21.0709 54.3395L21.0709 0 21.6064 0.535469 0 0.535469ZM34.6411 50.0558 43.2086 54.3395 34.6411 58.6233Z" fill="#2099D8" fill-rule="nonzero" fill-opacity="1" transform="matrix(1 -1.22521e-16 -1.22465e-16 -1.00046 165.638 278.65)"/><path d="M502.627 414.096C502.627 412.519 504.385 411.24 506.554 411.24 508.723 411.24 510.481 412.519 510.481 414.096 510.481 415.673 508.723 416.952 506.554 416.952 504.385 416.952 502.627 415.673 502.627 414.096Z" fill="#434343" fill-rule="evenodd" fill-opacity="1" transform="matrix(1 0 0 1.00046 -195.625 -127.143)"/><path d="M502.627 422.664C502.627 421.086 504.385 419.808 506.554 419.808 508.723 419.808 510.481 421.086 510.481 422.664 510.481 424.241 508.723 425.519 506.554 425.519 504.385 425.519 502.627 424.241 502.627 422.664Z" fill="#434343" fill-rule="evenodd" fill-opacity="1" transform="matrix(1 0 0 1.00046 -195.625 -127.143)"/><path d="M0.038953-0.53405 1.10705-0.456145 1.02915 0.611956-0.038953 0.53405ZM4.31135-0.222427 5.37946-0.144521 5.30155 0.923577 4.23345 0.845677ZM8.58378 0.0891963 9.65187 0.167103 9.57397 1.23521 8.50582 1.1573ZM12.8562 0.40082 13.9243 0.478726 13.8464 1.54683 12.7783 1.46892ZM17.1286 0.712444 18.1967 0.790352 18.1188 1.85845 17.0507 1.78054ZM21.401 1.02407 22.4691 1.10197 22.3912 2.17007 21.3231 2.09217ZM23.6757-2.56826 31.9089 2.32739 23.0524 5.97655Z" fill="#2099D8" fill-rule="nonzero" fill-opacity="1" transform="matrix(1 -1.22521e-16 -1.22465e-16 -1.00046 453.364 248.757)"/><path d="M0.490418-0.214984 0.920386 0.765849-0.06045 1.19582-0.490418 0.214984ZM2.21029 3.70836 2.64026 4.68919 1.65942 5.11916 1.22945 4.13832ZM3.93016 7.63172 4.36013 8.61256 3.37929 9.0425 2.94932 8.06167ZM5.65003 11.5551 6.07999 12.5359 5.09916 12.9658 4.66919 11.985ZM7.36991 15.4783 7.79986 16.4592 6.81903 16.8892 6.38906 15.9084ZM9.08977 19.4017 9.51971 20.3825 8.53888 20.8125 8.10893 19.8317ZM10.8096 23.325 11.2396 24.3059 10.2587 24.7358 9.82878 23.7551ZM12.5295 27.2484 12.9595 28.2292 11.9787 28.6592 11.5486 27.6783ZM14.2494 31.1717 14.6793 32.1526 13.6985 32.5825 13.2686 31.6017ZM15.9693 35.0951 16.3992 36.0759 15.4184 36.5059 14.9884 35.525ZM17.6891 39.0184 18.1191 39.9993 17.1382 40.4292 16.7083 39.4484ZM19.409 42.9418 19.8389 43.9226 18.8581 44.3526 18.4281 43.3717ZM21.1288 46.8651 21.5588 47.8459 20.578 48.2759 20.148 47.2951ZM22.8488 50.7885 23.2787 51.7692 22.2979 52.1992 21.8679 51.2184ZM24.5686 54.7117 24.9986 55.6926 24.0177 56.1226 23.5878 55.1418ZM26.2885 58.6351 26.7184 59.6159 25.7376 60.0459 25.3076 59.0651ZM28.0083 62.5584 28.4383 63.5393 27.4574 63.9692 27.0275 62.9884ZM32.3925 63.2235 31.9089 72.7902 24.5458 66.6633Z" fill="#2099D8" fill-rule="nonzero" fill-opacity="1" transform="matrix(1 -1.22521e-16 -1.22465e-16 -1.00046 453.364 319.252)"/><path d="M649.293 350.827 650.174 351.437 649.564 352.317 648.684 351.708ZM652.815 353.266 653.696 353.876 653.086 354.756 652.206 354.146ZM656.337 355.704 657.218 356.314 656.608 357.195 655.728 356.585ZM659.859 358.143 660.74 358.753 660.13 359.633 659.25 359.023ZM663.381 360.582 664.262 361.191 663.652 362.072 662.772 361.462ZM666.903 363.02 667.784 363.63 667.174 364.51 666.293 363.901ZM670.425 365.459 671.305 366.068 670.696 366.949 669.815 366.339ZM673.947 367.897 674.827 368.507 674.218 369.387 673.337 368.778ZM676.292 364.962 680.898 373.361 671.415 372.006Z" fill="#2099D8" fill-rule="nonzero" fill-opacity="1" transform="matrix(1 0 0 1.00046 -195.625 -127.143)"/><path d="M680.403 255.122C680.403 245.132 688.5 237.034 698.49 237.034L770.84 237.034C780.828 237.034 788.924 245.132 788.924 255.122L788.924 491.679C788.924 501.669 780.828 509.767 770.84 509.767L698.49 509.767C688.5 509.767 680.403 501.669 680.403 491.679Z" stroke="#2099D8" stroke-width="1.07094" stroke-linecap="butt" stroke-linejoin="round" stroke-miterlimit="10" stroke-opacity="1" fill="#FFFFFF" fill-rule="evenodd" fill-opacity="1" transform="matrix(1 0 0 1.00046 -195.625 -127.143)"/><text fill="#000000" fill-opacity="1" font-family="Arial,Arial_MSFontService,sans-serif" font-style="normal" font-variant="normal" font-weight="700" font-stretch="normal" font-size="14" text-anchor="start" direction="ltr" writing-mode="lr-tb" unicode-bidi="normal" text-decoration="none" transform="matrix(0.713959 0 0 0.714286 500.554 119)">EndPoint:<tspan fill="#000000" fill-opacity="1" font-family="Arial,Arial_MSFontService,sans-serif" font-style="normal" font-variant="normal" font-weight="400" font-stretch="normal" font-size="14" text-anchor="start" direction="ltr" writing-mode="lr-tb" unicode-bidi="normal" text-decoration="none" x="0" y="15.4">-</tspan><tspan fill="#000000" fill-opacity="1" font-family="Arial,Arial_MSFontService,sans-serif" font-style="normal" font-variant="normal" font-weight="400" font-stretch="normal" font-size="14" text-anchor="start" direction="ltr" writing-mode="lr-tb" unicode-bidi="normal" text-decoration="none" x="8.74999" y="15.4">Prefix</tspan><tspan fill="#000000" fill-opacity="1" font-family="Arial,Arial_MSFontService,sans-serif" font-style="normal" font-variant="normal" font-weight="400" font-stretch="normal" font-size="14" text-anchor="start" direction="ltr" writing-mode="lr-tb" unicode-bidi="normal" text-decoration="none" x="0" y="33.6">-</tspan><tspan fill="#000000" fill-opacity="1" font-family="Arial,Arial_MSFontService,sans-serif" font-style="normal" font-variant="normal" font-weight="400" font-stretch="normal" font-size="14" text-anchor="start" direction="ltr" writing-mode="lr-tb" unicode-bidi="normal" text-decoration="none" x="8.74999" y="33.6">Prefix</tspan><tspan fill="#000000" fill-opacity="1" font-family="Arial,Arial_MSFontService,sans-serif" font-style="normal" font-variant="normal" font-weight="400" font-stretch="normal" font-size="14" text-anchor="start" direction="ltr" writing-mode="lr-tb" unicode-bidi="normal" text-decoration="none" x="44.5" y="33.6">-</tspan><tspan fill="#000000" fill-opacity="1" font-family="Arial,Arial_MSFontService,sans-serif" font-style="normal" font-variant="normal" font-weight="400" font-stretch="normal" font-size="14" text-anchor="start" direction="ltr" writing-mode="lr-tb" unicode-bidi="normal" text-decoration="none" x="49.2501" y="33.6">selector</tspan><tspan fill="#000000" fill-opacity="1" font-family="Arial,Arial_MSFontService,sans-serif" font-style="normal" font-variant="normal" font-weight="700" font-stretch="normal" font-size="14" text-anchor="start" direction="ltr" writing-mode="lr-tb" unicode-bidi="normal" text-decoration="none" x="0" y="49">Ingress</tspan><tspan fill="#000000" fill-opacity="1" font-family="Arial,Arial_MSFontService,sans-serif" font-style="normal" font-variant="normal" font-weight="700" font-stretch="normal" font-size="14" text-anchor="start" direction="ltr" writing-mode="lr-tb" unicode-bidi="normal" text-decoration="none" x="49.7501" y="49">-</tspan><tspan fill="#000000" fill-opacity="1" font-family="Arial,Arial_MSFontService,sans-serif" font-style="normal" font-variant="normal" font-weight="700" font-stretch="normal" font-size="14" text-anchor="start" direction="ltr" writing-mode="lr-tb" unicode-bidi="normal" text-decoration="none" x="54.7501" y="49">rules:</tspan><tspan fill="#000000" fill-opacity="1" font-family="Arial,Arial_MSFontService,sans-serif" font-style="normal" font-variant="normal" font-weight="400" font-stretch="normal" font-size="14" text-anchor="start" direction="ltr" writing-mode="lr-tb" unicode-bidi="normal" text-decoration="none" x="0" y="65.8">-</tspan><tspan fill="#000000" fill-opacity="1" font-family="Arial,Arial_MSFontService,sans-serif" font-style="normal" font-variant="normal" font-weight="400" font-stretch="normal" font-size="14" text-anchor="start" direction="ltr" writing-mode="lr-tb" unicode-bidi="normal" text-decoration="none" x="8.74999" y="65.8">-</tspan><tspan fill="#000000" fill-opacity="1" font-family="Arial,Arial_MSFontService,sans-serif" font-style="normal" font-variant="normal" font-weight="400" font-stretch="normal" font-size="14" text-anchor="start" direction="ltr" writing-mode="lr-tb" unicode-bidi="normal" text-decoration="none" x="17.5" y="65.8">Prefix</tspan><tspan fill="#000000" fill-opacity="1" font-family="Arial,Arial_MSFontService,sans-serif" font-style="normal" font-variant="normal" font-weight="400" font-stretch="normal" font-size="14" text-anchor="start" direction="ltr" writing-mode="lr-tb" unicode-bidi="normal" text-decoration="none" x="0" y="84">-</tspan><tspan fill="#000000" fill-opacity="1" font-family="Arial,Arial_MSFontService,sans-serif" font-style="normal" font-variant="normal" font-weight="400" font-stretch="normal" font-size="14" text-anchor="start" direction="ltr" writing-mode="lr-tb" unicode-bidi="normal" text-decoration="none" x="8.74999" y="84">Prefix</tspan><tspan fill="#000000" fill-opacity="1" font-family="Arial,Arial_MSFontService,sans-serif" font-style="normal" font-variant="normal" font-weight="400" font-stretch="normal" font-size="14" text-anchor="start" direction="ltr" writing-mode="lr-tb" unicode-bidi="normal" text-decoration="none" x="44.5" y="84">-</tspan><tspan fill="#000000" fill-opacity="1" font-family="Arial,Arial_MSFontService,sans-serif" font-style="normal" font-variant="normal" font-weight="400" font-stretch="normal" font-size="14" text-anchor="start" direction="ltr" writing-mode="lr-tb" unicode-bidi="normal" text-decoration="none" x="49.2501" y="84">set</tspan><tspan fill="#000000" fill-opacity="1" font-family="Arial,Arial_MSFontService,sans-serif" font-style="normal" font-variant="normal" font-weight="400" font-stretch="normal" font-size="14" text-anchor="start" direction="ltr" writing-mode="lr-tb" unicode-bidi="normal" text-decoration="none" x="0" y="99.4">-</tspan><tspan fill="#000000" fill-opacity="1" font-family="Arial,Arial_MSFontService,sans-serif" font-style="normal" font-variant="normal" font-weight="400" font-stretch="normal" font-size="14" text-anchor="start" direction="ltr" writing-mode="lr-tb" unicode-bidi="normal" text-decoration="none" x="8.74999" y="99.4">Prefix</tspan><tspan fill="#000000" fill-opacity="1" font-family="Arial,Arial_MSFontService,sans-serif" font-style="normal" font-variant="normal" font-weight="400" font-stretch="normal" font-size="14" text-anchor="start" direction="ltr" writing-mode="lr-tb" unicode-bidi="normal" text-decoration="none" x="44.5" y="99.4">-</tspan><tspan fill="#000000" fill-opacity="1" font-family="Arial,Arial_MSFontService,sans-serif" font-style="normal" font-variant="normal" font-weight="400" font-stretch="normal" font-size="14" text-anchor="start" direction="ltr" writing-mode="lr-tb" unicode-bidi="normal" text-decoration="none" x="49.2501" y="99.4">selector</tspan><tspan fill="#000000" fill-opacity="1" font-family="Arial,Arial_MSFontService,sans-serif" font-style="normal" font-variant="normal" font-weight="700" font-stretch="normal" font-size="14" text-anchor="start" direction="ltr" writing-mode="lr-tb" unicode-bidi="normal" text-decoration="none" x="0" y="117.6">Protocol</tspan><tspan fill="#000000" fill-opacity="1" font-family="Arial,Arial_MSFontService,sans-serif" font-style="normal" font-variant="normal" font-weight="400" font-stretch="normal" font-size="14" text-anchor="start" direction="ltr" writing-mode="lr-tb" unicode-bidi="normal" text-decoration="none" x="0" y="133">-</tspan><tspan fill="#000000" fill-opacity="1" font-family="Arial,Arial_MSFontService,sans-serif" font-style="normal" font-variant="normal" font-weight="400" font-stretch="normal" font-size="14" text-anchor="start" direction="ltr" writing-mode="lr-tb" unicode-bidi="normal" text-decoration="none" x="8.74999" y="133">TCP/UDP</tspan><tspan fill="#000000" fill-opacity="1" font-family="Arial,Arial_MSFontService,sans-serif" font-style="normal" font-variant="normal" font-weight="700" font-stretch="normal" font-size="14" text-anchor="start" direction="ltr" writing-mode="lr-tb" unicode-bidi="normal" text-decoration="none" x="0" y="149.8">Port</tspan><tspan fill="#000000" fill-opacity="1" font-family="Arial,Arial_MSFontService,sans-serif" font-style="normal" font-variant="normal" font-weight="400" font-stretch="normal" font-size="14" text-anchor="start" direction="ltr" writing-mode="lr-tb" unicode-bidi="normal" text-decoration="none" x="0" y="168">-</tspan><tspan fill="#000000" fill-opacity="1" font-family="Arial,Arial_MSFontService,sans-serif" font-style="normal" font-variant="normal" font-weight="400" font-stretch="normal" font-size="14" text-anchor="start" direction="ltr" writing-mode="lr-tb" unicode-bidi="normal" text-decoration="none" x="8.74999" y="168">Port Number</tspan><tspan fill="#000000" fill-opacity="1" font-family="Arial,Arial_MSFontService,sans-serif" font-style="normal" font-variant="normal" font-weight="700" font-stretch="normal" font-size="14" text-anchor="start" direction="ltr" writing-mode="lr-tb" unicode-bidi="normal" text-decoration="none" x="0" y="183.4">Action</tspan><tspan fill="#000000" fill-opacity="1" font-family="Arial,Arial_MSFontService,sans-serif" font-style="normal" font-variant="normal" font-weight="400" font-stretch="normal" font-size="14" text-anchor="start" direction="ltr" writing-mode="lr-tb" unicode-bidi="normal" text-decoration="none" x="0" y="201.6">-</tspan><tspan fill="#000000" fill-opacity="1" font-family="Arial,Arial_MSFontService,sans-serif" font-style="normal" font-variant="normal" font-weight="400" font-stretch="normal" font-size="14" text-anchor="start" direction="ltr" writing-mode="lr-tb" unicode-bidi="normal" text-decoration="none" x="8.74999" y="201.6">Allow/Deny</tspan><tspan fill="#000000" fill-opacity="1" font-family="Arial,Arial_MSFontService,sans-serif" font-style="normal" font-variant="normal" font-weight="700" font-stretch="normal" font-size="14" text-anchor="start" direction="ltr" writing-mode="lr-tb" unicode-bidi="normal" text-decoration="none" x="0" y="217">Egress Rules:</tspan><tspan fill="#000000" fill-opacity="1" font-family="Arial,Arial_MSFontService,sans-serif" font-style="normal" font-variant="normal" font-weight="400" font-stretch="normal" font-size="14" text-anchor="start" direction="ltr" writing-mode="lr-tb" unicode-bidi="normal" text-decoration="none" x="0" y="233.8">-</tspan><tspan fill="#000000" fill-opacity="1" font-family="Arial,Arial_MSFontService,sans-serif" font-style="normal" font-variant="normal" font-weight="400" font-stretch="normal" font-size="14" text-anchor="start" direction="ltr" writing-mode="lr-tb" unicode-bidi="normal" text-decoration="none" x="8.74999" y="233.8">Prefix</tspan><tspan fill="#000000" fill-opacity="1" font-family="Arial,Arial_MSFontService,sans-serif" font-style="normal" font-variant="normal" font-weight="400" font-stretch="normal" font-size="14" text-anchor="start" direction="ltr" writing-mode="lr-tb" unicode-bidi="normal" text-decoration="none" x="0" y="252">-</tspan><tspan fill="#000000" fill-opacity="1" font-family="Arial,Arial_MSFontService,sans-serif" font-style="normal" font-variant="normal" font-weight="400" font-stretch="normal" font-size="14" text-anchor="start" direction="ltr" writing-mode="lr-tb" unicode-bidi="normal" text-decoration="none" x="8.74999" y="252">Prefix</tspan><tspan fill="#000000" fill-opacity="1" font-family="Arial,Arial_MSFontService,sans-serif" font-style="normal" font-variant="normal" font-weight="400" font-stretch="normal" font-size="14" text-anchor="start" direction="ltr" writing-mode="lr-tb" unicode-bidi="normal" text-decoration="none" x="44.5" y="252">-</tspan><tspan fill="#000000" fill-opacity="1" font-family="Arial,Arial_MSFontService,sans-serif" font-style="normal" font-variant="normal" font-weight="400" font-stretch="normal" font-size="14" text-anchor="start" direction="ltr" writing-mode="lr-tb" unicode-bidi="normal" text-decoration="none" x="49.2501" y="252">set</tspan><tspan fill="#000000" fill-opacity="1" font-family="Arial,Arial_MSFontService,sans-serif" font-style="normal" font-variant="normal" font-weight="400" font-stretch="normal" font-size="14" text-anchor="start" direction="ltr" writing-mode="lr-tb" unicode-bidi="normal" text-decoration="none" x="0" y="267.4">-</tspan><tspan fill="#000000" fill-opacity="1" font-family="Arial,Arial_MSFontService,sans-serif" font-style="normal" font-variant="normal" font-weight="400" font-stretch="normal" font-size="14" text-anchor="start" direction="ltr" writing-mode="lr-tb" unicode-bidi="normal" text-decoration="none" x="8.74999" y="267.4">Prefix</tspan><tspan fill="#000000" fill-opacity="1" font-family="Arial,Arial_MSFontService,sans-serif" font-style="normal" font-variant="normal" font-weight="400" font-stretch="normal" font-size="14" text-anchor="start" direction="ltr" writing-mode="lr-tb" unicode-bidi="normal" text-decoration="none" x="44.5" y="267.4">-</tspan><tspan fill="#000000" fill-opacity="1" font-family="Arial,Arial_MSFontService,sans-serif" font-style="normal" font-variant="normal" font-weight="400" font-stretch="normal" font-size="14" text-anchor="start" direction="ltr" writing-mode="lr-tb" unicode-bidi="normal" text-decoration="none" x="49.2501" y="267.4">selector</tspan><tspan fill="#000000" fill-opacity="1" font-family="Arial,Arial_MSFontService,sans-serif" font-style="normal" font-variant="normal" font-weight="700" font-stretch="normal" font-size="14" text-anchor="start" direction="ltr" writing-mode="lr-tb" unicode-bidi="normal" text-decoration="none" x="0" y="285.6">Protocol</tspan><tspan fill="#000000" fill-opacity="1" font-family="Arial,Arial_MSFontService,sans-serif" font-style="normal" font-variant="normal" font-weight="400" font-stretch="normal" font-size="14" text-anchor="start" direction="ltr" writing-mode="lr-tb" unicode-bidi="normal" text-decoration="none" x="0" y="301">-</tspan><tspan fill="#000000" fill-opacity="1" font-family="Arial,Arial_MSFontService,sans-serif" font-style="normal" font-variant="normal" font-weight="400" font-stretch="normal" font-size="14" text-anchor="start" direction="ltr" writing-mode="lr-tb" unicode-bidi="normal" text-decoration="none" x="8.74999" y="301">TCP/UDP</tspan><tspan fill="#000000" fill-opacity="1" font-family="Arial,Arial_MSFontService,sans-serif" font-style="normal" font-variant="normal" font-weight="700" font-stretch="normal" font-size="14" text-anchor="start" direction="ltr" writing-mode="lr-tb" unicode-bidi="normal" text-decoration="none" x="0" y="317.8">Port</tspan><tspan fill="#000000" fill-opacity="1" font-family="Arial,Arial_MSFontService,sans-serif" font-style="normal" font-variant="normal" font-weight="400" font-stretch="normal" font-size="14" text-anchor="start" direction="ltr" writing-mode="lr-tb" unicode-bidi="normal" text-decoration="none" x="0" y="336">-</tspan><tspan fill="#000000" fill-opacity="1" font-family="Arial,Arial_MSFontService,sans-serif" font-style="normal" font-variant="normal" font-weight="400" font-stretch="normal" font-size="14" text-anchor="start" direction="ltr" writing-mode="lr-tb" unicode-bidi="normal" text-decoration="none" x="8.74999" y="336">Port Number</tspan><tspan fill="#000000" fill-opacity="1" font-family="Arial,Arial_MSFontService,sans-serif" font-style="normal" font-variant="normal" font-weight="700" font-stretch="normal" font-size="14" text-anchor="start" direction="ltr" writing-mode="lr-tb" unicode-bidi="normal" text-decoration="none" x="0" y="351.4">Action</tspan><tspan fill="#000000" fill-opacity="1" font-family="Arial,Arial_MSFontService,sans-serif" font-style="normal" font-variant="normal" font-weight="400" font-stretch="normal" font-size="14" text-anchor="start" direction="ltr" writing-mode="lr-tb" unicode-bidi="normal" text-decoration="none" x="0" y="369.6">-</tspan><tspan fill="#000000" fill-opacity="1" font-family="Arial,Arial_MSFontService,sans-serif" font-style="normal" font-variant="normal" font-weight="400" font-stretch="normal" font-size="14" text-anchor="start" direction="ltr" writing-mode="lr-tb" unicode-bidi="normal" text-decoration="none" x="8.74999" y="369.6">Allow/Deny</tspan></text><path d="M440.881 207.762 592.931 207.762C612.85 207.762 628.998 212.237 628.998 217.757 628.998 223.278 612.85 227.753 592.931 227.753L440.881 227.753C420.962 227.753 404.815 223.278 404.815 217.757 404.815 212.237 420.962 207.762 440.881 207.762Z" stroke="#F37543" stroke-width="1.07094" stroke-linecap="butt" stroke-linejoin="round" stroke-miterlimit="10" stroke-opacity="1" fill="#FFFFFF" fill-rule="evenodd" fill-opacity="1" transform="matrix(1 0 0 1.00046 -195.625 -127.143)"/><text fill="#000000" fill-opacity="1" font-family="Arial,Arial_MSFontService,sans-serif" font-style="normal" font-variant="normal" font-weight="400" font-stretch="normal" font-size="16" text-anchor="start" direction="ltr" writing-mode="lr-tb" unicode-bidi="normal" text-decoration="none" transform="matrix(0.713959 0 0 0.714286 219.732 96)">PolicySet-1: <tspan fill="#000000" fill-opacity="1" font-family="Arial,Arial_MSFontService,sans-serif" font-style="normal" font-variant="normal" font-weight="400" font-stretch="normal" font-size="14" text-anchor="start" direction="ltr" writing-mode="lr-tb" unicode-bidi="normal" text-decoration="none" x="90.25" y="0">Policy</tspan><tspan fill="#000000" fill-opacity="1" font-family="Arial,Arial_MSFontService,sans-serif" font-style="normal" font-variant="normal" font-weight="400" font-stretch="normal" font-size="14" text-anchor="start" direction="ltr" writing-mode="lr-tb" unicode-bidi="normal" text-decoration="none" x="127.25" y="0">-</tspan><tspan fill="#000000" fill-opacity="1" font-family="Arial,Arial_MSFontService,sans-serif" font-style="normal" font-variant="normal" font-weight="400" font-stretch="normal" font-size="14" text-anchor="start" direction="ltr" writing-mode="lr-tb" unicode-bidi="normal" text-decoration="none" x="132" y="0">1/2/3, Policy</tspan><tspan fill="#000000" fill-opacity="1" font-family="Arial,Arial_MSFontService,sans-serif" font-style="normal" font-variant="normal" font-weight="400" font-stretch="normal" font-size="14" text-anchor="start" direction="ltr" writing-mode="lr-tb" unicode-bidi="normal" text-decoration="none" x="208.25" y="0">-</tspan><tspan fill="#000000" fill-opacity="1" font-family="Arial,Arial_MSFontService,sans-serif" font-style="normal" font-variant="normal" font-weight="400" font-stretch="normal" font-size="14" text-anchor="start" direction="ltr" writing-mode="lr-tb" unicode-bidi="normal" text-decoration="none" x="213" y="0">10</tspan></text><path d="M440.881 232.037 592.931 232.037C612.85 232.037 628.998 236.672 628.998 242.389 628.998 248.106 612.85 252.741 592.931 252.741L440.881 252.741C420.962 252.741 404.815 248.106 404.815 242.389 404.815 236.672 420.962 232.037 440.881 232.037Z" stroke="#F37543" stroke-width="1.07094" stroke-linecap="butt" stroke-linejoin="round" stroke-miterlimit="10" stroke-opacity="1" fill="#FFFFFF" fill-rule="evenodd" fill-opacity="1" transform="matrix(1 0 0 1.00046 -195.625 -127.143)"/><text fill="#000000" fill-opacity="1" font-family="Arial,Arial_MSFontService,sans-serif" font-style="normal" font-variant="normal" font-weight="400" font-stretch="normal" font-size="16" text-anchor="start" direction="ltr" writing-mode="lr-tb" unicode-bidi="normal" text-decoration="none" transform="matrix(0.713959 0 0 0.714286 219.732 120)">PolicySet-2: <tspan fill="#000000" fill-opacity="1" font-family="Arial,Arial_MSFontService,sans-serif" font-style="normal" font-variant="normal" font-weight="400" font-stretch="normal" font-size="14" text-anchor="start" direction="ltr" writing-mode="lr-tb" unicode-bidi="normal" text-decoration="none" x="90.25" y="0">Policy</tspan><tspan fill="#000000" fill-opacity="1" font-family="Arial,Arial_MSFontService,sans-serif" font-style="normal" font-variant="normal" font-weight="400" font-stretch="normal" font-size="14" text-anchor="start" direction="ltr" writing-mode="lr-tb" unicode-bidi="normal" text-decoration="none" x="127.25" y="0">-</tspan><tspan fill="#000000" fill-opacity="1" font-family="Arial,Arial_MSFontService,sans-serif" font-style="normal" font-variant="normal" font-weight="400" font-stretch="normal" font-size="14" text-anchor="start" direction="ltr" writing-mode="lr-tb" unicode-bidi="normal" text-decoration="none" x="132" y="0">4/5/6, Policy</tspan><tspan fill="#000000" fill-opacity="1" font-family="Arial,Arial_MSFontService,sans-serif" font-style="normal" font-variant="normal" font-weight="400" font-stretch="normal" font-size="14" text-anchor="start" direction="ltr" writing-mode="lr-tb" unicode-bidi="normal" text-decoration="none" x="208.25" y="0">-</tspan><tspan fill="#000000" fill-opacity="1" font-family="Arial,Arial_MSFontService,sans-serif" font-style="normal" font-variant="normal" font-weight="400" font-stretch="normal" font-size="14" text-anchor="start" direction="ltr" writing-mode="lr-tb" unicode-bidi="normal" text-decoration="none" x="213" y="0">11</tspan></text><path d="M440.881 276.302 592.931 276.302C612.85 276.302 628.998 280.777 628.998 286.297 628.998 291.818 612.85 296.293 592.931 296.293L440.881 296.293C420.962 296.293 404.815 291.818 404.815 286.297 404.815 280.777 420.962 276.302 440.881 276.302Z" stroke="#F37543" stroke-width="1.07094" stroke-linecap="butt" stroke-linejoin="round" stroke-miterlimit="10" stroke-opacity="1" fill="#FFFFFF" fill-rule="evenodd" fill-opacity="1" transform="matrix(1 0 0 1.00046 -195.625 -127.143)"/><text fill="#000000" fill-opacity="1" font-family="Arial,Arial_MSFontService,sans-serif" font-style="normal" font-variant="normal" font-weight="400" font-stretch="normal" font-size="16" text-anchor="start" direction="ltr" writing-mode="lr-tb" unicode-bidi="normal" text-decoration="none" transform="matrix(0.713959 0 0 0.714286 219.732 164)">PolicySet-’n’: <tspan fill="#000000" fill-opacity="1" font-family="Arial,Arial_MSFontService,sans-serif" font-style="normal" font-variant="normal" font-weight="400" font-stretch="normal" font-size="14" text-anchor="start" direction="ltr" writing-mode="lr-tb" unicode-bidi="normal" text-decoration="none" x="97.25" y="0">Policy</tspan><tspan fill="#000000" fill-opacity="1" font-family="Arial,Arial_MSFontService,sans-serif" font-style="normal" font-variant="normal" font-weight="400" font-stretch="normal" font-size="14" text-anchor="start" direction="ltr" writing-mode="lr-tb" unicode-bidi="normal" text-decoration="none" x="134.25" y="0">-</tspan><tspan fill="#000000" fill-opacity="1" font-family="Arial,Arial_MSFontService,sans-serif" font-style="normal" font-variant="normal" font-weight="400" font-stretch="normal" font-size="14" text-anchor="start" direction="ltr" writing-mode="lr-tb" unicode-bidi="normal" text-decoration="none" x="139" y="0">4/5/6, Policy</tspan><tspan fill="#000000" fill-opacity="1" font-family="Arial,Arial_MSFontService,sans-serif" font-style="normal" font-variant="normal" font-weight="400" font-stretch="normal" font-size="14" text-anchor="start" direction="ltr" writing-mode="lr-tb" unicode-bidi="normal" text-decoration="none" x="215.25" y="0">-</tspan><tspan fill="#000000" fill-opacity="1" font-family="Arial,Arial_MSFontService,sans-serif" font-style="normal" font-variant="normal" font-weight="400" font-stretch="normal" font-size="14" text-anchor="start" direction="ltr" writing-mode="lr-tb" unicode-bidi="normal" text-decoration="none" x="220" y="0">11</tspan></text><path d="M502.627 259.881C502.627 258.304 504.385 257.025 506.554 257.025 508.723 257.025 510.481 258.304 510.481 259.881 510.481 261.458 508.723 262.737 506.554 262.737 504.385 262.737 502.627 261.458 502.627 259.881Z" fill="#434343" fill-rule="evenodd" fill-opacity="1" transform="matrix(1 0 0 1.00046 -195.625 -127.143)"/><path d="M502.627 268.449C502.627 266.871 504.385 265.593 506.554 265.593 508.723 265.593 510.481 266.871 510.481 268.449 510.481 270.026 508.723 271.304 506.554 271.304 504.385 271.304 502.627 270.026 502.627 268.449Z" fill="#434343" fill-rule="evenodd" fill-opacity="1" transform="matrix(1 0 0 1.00046 -195.625 -127.143)"/><path d="M0-0.535469 21.6065-0.535469C21.9022-0.535469 22.1419-0.295732 22.1419 0L22.1419 30.1549 21.6065 29.6194 36.069 29.6194 36.069 30.6904 21.6065 30.6904C21.3107 30.6904 21.071 30.4506 21.071 30.1549L21.071 0 21.6065 0.535469 0 0.535469ZM34.6411 25.8712 43.2086 30.1549 34.6411 34.4387Z" fill="#F37543" fill-rule="nonzero" fill-opacity="1" transform="matrix(1 -1.22521e-16 -1.22465e-16 -1.00046 165.638 120.883)"/><path d="M0-0.535469 21.6065-0.535469C21.9022-0.535469 22.1419-0.295732 22.1419 0L22.1419 5.76789 21.6065 5.23242 36.069 5.23242 36.069 6.30336 21.6065 6.30336C21.3107 6.30336 21.071 6.06362 21.071 5.76789L21.071 0 21.6065 0.535469 0 0.535469ZM34.6411 1.48413 43.2086 5.76789 34.6411 10.0516Z" fill="#F37543" fill-rule="nonzero" fill-opacity="1" transform="matrix(1 -1.22521e-16 -1.22465e-16 -1.00046 165.638 120.771)"/><path d="M361.263 247.922 382.87 247.922C383.165 247.922 383.405 248.162 383.405 248.458L383.405 286.843 382.87 286.307 397.332 286.307 397.332 287.378 382.87 287.378C382.574 287.378 382.334 287.139 382.334 286.843L382.334 248.458 382.87 248.993 361.263 248.993ZM395.904 282.559 404.472 286.843 395.904 291.127Z" fill="#F37543" fill-rule="nonzero" fill-opacity="1" transform="matrix(1 0 0 1.00046 -195.625 -127.143)"/><path d="M298.435 389.959 298.435 283.799 300.577 283.799 300.577 389.959ZM295.222 285.227 299.506 276.659 303.789 285.227Z" fill="#434343" fill-rule="nonzero" fill-opacity="1" transform="matrix(1 0 0 1.00046 -195.625 -127.143)"/></g></svg>