<svg width="624" height="322" xmlns="http://www.w3.org/2000/svg" xmlns:xlink="http://www.w3.org/1999/xlink" overflow="hidden"><defs><clipPath id="clip0"><rect x="0" y="0" width="624" height="322"/></clipPath></defs><g clip-path="url(#clip0)"><path d="M176.273 119 796.727 119 796.727 435.273 176.273 435.273Z" stroke="#000000" stroke-width="2.54545" stroke-linecap="butt" stroke-linejoin="round" stroke-miterlimit="10" stroke-opacity="1" fill="#FFFFFF" fill-rule="nonzero" fill-opacity="1" transform="matrix(1.00058 0 0 1 -174.465 -114.545)"/><path d="M191.545 147 780.818 147 780.818 424.455 191.545 424.455Z" stroke="#000000" stroke-width="2.54545" stroke-linecap="butt" stroke-linejoin="round" stroke-miterlimit="10" stroke-opacity="1" fill="#FFFFFF" fill-rule="nonzero" fill-opacity="1" transform="matrix(1.00058 0 0 1 -174.465 -114.545)"/><text fill="#741B47" fill-opacity="1" font-family="Arial,Arial_MSFontService,sans-serif" font-style="normal" font-variant="normal" font-weight="700" font-stretch="normal" font-size="24" text-anchor="start" direction="ltr" writing-mode="lr-tb" unicode-bidi="normal" text-decoration="none" transform="matrix(0.636735 0 0 0.636364 24.6696 57)">Namespace <tspan fill="#741B47" fill-opacity="1" font-family="Arial,Arial_MSFontService,sans-serif" font-style="normal" font-variant="normal" font-weight="700" font-stretch="normal" font-size="28" text-anchor="start" direction="ltr" writing-mode="lr-tb" unicode-bidi="normal" text-decoration="none" x="-17.0696" y="-51.8571">Tenant</tspan></text><path d="M229.086 301.636 304.186 301.636C314.024 301.636 322 308.047 322 315.955 322 323.862 314.024 330.273 304.186 330.273L229.086 330.273C219.248 330.273 211.273 323.862 211.273 315.955 211.273 308.047 219.248 301.636 229.086 301.636Z" stroke="#2099D8" stroke-width="0.954545" stroke-linecap="butt" stroke-linejoin="round" stroke-miterlimit="10" stroke-opacity="1" fill="#2099D8" fill-rule="evenodd" fill-opacity="1" transform="matrix(1.00058 0 0 1 -174.465 -114.545)"/><text fill="#FFFFFF" fill-opacity="1" font-family="Arial,Arial_MSFontService,sans-serif" font-style="normal" font-variant="normal" font-weight="700" font-stretch="normal" font-size="20" text-anchor="start" direction="ltr" writing-mode="lr-tb" unicode-bidi="normal" text-decoration="none" transform="matrix(0.636735 0 0 0.636364 69.9549 199)">Service <tspan fill="#FFFFFF" fill-opacity="1" font-family="Arial,Arial_MSFontService,sans-serif" font-style="normal" font-variant="normal" font-weight="700" font-stretch="normal" font-size="20" text-anchor="start" direction="ltr" writing-mode="lr-tb" unicode-bidi="normal" text-decoration="none" x="-2.25" y="23.5714">Policies</tspan></text><path d="M229.086 196.636 304.186 196.636C314.024 196.636 322 207.748 322 221.455 322 235.161 314.024 246.273 304.186 246.273L229.086 246.273C219.248 246.273 211.273 235.161 211.273 221.455 211.273 207.748 219.248 196.636 229.086 196.636Z" stroke="#F37543" stroke-width="0.954545" stroke-linecap="butt" stroke-linejoin="round" stroke-miterlimit="10" stroke-opacity="1" fill="#F37543" fill-rule="evenodd" fill-opacity="1" transform="matrix(1.00058 0 0 1 -174.465 -114.545)"/><text fill="#FFFFFF" fill-opacity="1" font-family="Arial,Arial_MSFontService,sans-serif" font-style="normal" font-variant="normal" font-weight="700" font-stretch="normal" font-size="20" text-anchor="start" direction="ltr" writing-mode="lr-tb" unicode-bidi="normal" text-decoration="none" transform="matrix(0.636735 0 0 0.636364 73.3805 97)">Active <tspan fill="#FFFFFF" fill-opacity="1" font-family="Arial,Arial_MSFontService,sans-serif" font-style="normal" font-variant="normal" font-weight="700" font-stretch="normal" font-size="20" text-anchor="start" direction="ltr" writing-mode="lr-tb" unicode-bidi="normal" text-decoration="none" x="-5.38001" y="23.5714">Service </tspan><tspan fill="#FFFFFF" fill-opacity="1" font-family="Arial,Arial_MSFontService,sans-serif" font-style="normal" font-variant="normal" font-weight="700" font-stretch="normal" font-size="20" text-anchor="start" direction="ltr" writing-mode="lr-tb" unicode-bidi="normal" text-decoration="none" x="0.619988" y="47.1429">Policy</tspan></text><path d="M400.029 281.273 565.335 281.273C586.99 281.273 604.545 285.261 604.545 290.182 604.545 295.102 586.99 299.091 565.335 299.091L400.029 299.091C378.374 299.091 360.818 295.102 360.818 290.182 360.818 285.261 378.374 281.273 400.029 281.273Z" stroke="#2099D8" stroke-width="0.954545" stroke-linecap="butt" stroke-linejoin="round" stroke-miterlimit="10" stroke-opacity="1" fill="#FFFFFF" fill-rule="evenodd" fill-opacity="1" transform="matrix(1.00058 0 0 1 -174.465 -114.545)"/><text fill="#000000" fill-opacity="1" font-family="Arial,Arial_MSFontService,sans-serif" font-style="normal" font-variant="normal" font-weight="400" font-stretch="normal" font-size="16" text-anchor="start" direction="ltr" writing-mode="lr-tb" unicode-bidi="normal" text-decoration="none" transform="matrix(0.636735 0 0 0.636364 198.03 180)">Policy-1: <tspan fill="#000000" fill-opacity="1" font-family="Arial,Arial_MSFontService,sans-serif" font-style="normal" font-variant="normal" font-weight="400" font-stretch="normal" font-size="14" text-anchor="start" direction="ltr" writing-mode="lr-tb" unicode-bidi="normal" text-decoration="none" x="66" y="0">server, algorithm, label select, selec </tspan><tspan fill="#000000" fill-opacity="1" font-family="Arial,Arial_MSFontService,sans-serif" font-style="normal" font-variant="normal" font-weight="400" font-stretch="normal" font-size="14" text-anchor="start" direction="ltr" writing-mode="lr-tb" unicode-bidi="normal" text-decoration="none" x="292.75" y="0">-</tspan><tspan fill="#000000" fill-opacity="1" font-family="Arial,Arial_MSFontService,sans-serif" font-style="normal" font-variant="normal" font-weight="400" font-stretch="normal" font-size="14" text-anchor="start" direction="ltr" writing-mode="lr-tb" unicode-bidi="normal" text-decoration="none" x="297.5" y="0">rules</tspan></text><path d="M400.029 302.909 565.335 302.909C586.99 302.909 604.545 307.04 604.545 312.136 604.545 317.232 586.99 321.364 565.335 321.364L400.029 321.364C378.374 321.364 360.818 317.232 360.818 312.136 360.818 307.04 378.374 302.909 400.029 302.909Z" stroke="#2099D8" stroke-width="0.954545" stroke-linecap="butt" stroke-linejoin="round" stroke-miterlimit="10" stroke-opacity="1" fill="#FFFFFF" fill-rule="evenodd" fill-opacity="1" transform="matrix(1.00058 0 0 1 -174.465 -114.545)"/><text fill="#000000" fill-opacity="1" font-family="Arial,Arial_MSFontService,sans-serif" font-style="normal" font-variant="normal" font-weight="400" font-stretch="normal" font-size="16" text-anchor="start" direction="ltr" writing-mode="lr-tb" unicode-bidi="normal" text-decoration="none" transform="matrix(0.636735 0 0 0.636364 198.03 202)">Policy-2: <tspan fill="#000000" fill-opacity="1" font-family="Arial,Arial_MSFontService,sans-serif" font-style="normal" font-variant="normal" font-weight="400" font-stretch="normal" font-size="14" text-anchor="start" direction="ltr" writing-mode="lr-tb" unicode-bidi="normal" text-decoration="none" x="66" y="0">local</tspan><tspan fill="#000000" fill-opacity="1" font-family="Arial,Arial_MSFontService,sans-serif" font-style="normal" font-variant="normal" font-weight="400" font-stretch="normal" font-size="14" text-anchor="start" direction="ltr" writing-mode="lr-tb" unicode-bidi="normal" text-decoration="none" x="94.5" y="0">--</tspan><tspan fill="#000000" fill-opacity="1" font-family="Arial,Arial_MSFontService,sans-serif" font-style="normal" font-variant="normal" font-weight="400" font-stretch="normal" font-size="14" text-anchor="start" direction="ltr" writing-mode="lr-tb" unicode-bidi="normal" text-decoration="none" x="104" y="0">ep, Ingress</tspan><tspan fill="#000000" fill-opacity="1" font-family="Arial,Arial_MSFontService,sans-serif" font-style="normal" font-variant="normal" font-weight="400" font-stretch="normal" font-size="14" text-anchor="start" direction="ltr" writing-mode="lr-tb" unicode-bidi="normal" text-decoration="none" x="173.5" y="0">-</tspan><tspan fill="#000000" fill-opacity="1" font-family="Arial,Arial_MSFontService,sans-serif" font-style="normal" font-variant="normal" font-weight="400" font-stretch="normal" font-size="14" text-anchor="start" direction="ltr" writing-mode="lr-tb" unicode-bidi="normal" text-decoration="none" x="178.25" y="0">rules, Egress</tspan><tspan fill="#000000" fill-opacity="1" font-family="Arial,Arial_MSFontService,sans-serif" font-style="normal" font-variant="normal" font-weight="400" font-stretch="normal" font-size="14" text-anchor="start" direction="ltr" writing-mode="lr-tb" unicode-bidi="normal" text-decoration="none" x="260" y="0">-</tspan><tspan fill="#000000" fill-opacity="1" font-family="Arial,Arial_MSFontService,sans-serif" font-style="normal" font-variant="normal" font-weight="400" font-stretch="normal" font-size="14" text-anchor="start" direction="ltr" writing-mode="lr-tb" unicode-bidi="normal" text-decoration="none" x="264.75" y="0">rules</tspan></text><path d="M400.029 350.636 565.335 350.636C586.99 350.636 604.545 354.625 604.545 359.545 604.545 364.466 586.99 368.455 565.335 368.455L400.029 368.455C378.374 368.455 360.818 364.466 360.818 359.545 360.818 354.625 378.374 350.636 400.029 350.636Z" stroke="#2099D8" stroke-width="0.954545" stroke-linecap="butt" stroke-linejoin="round" stroke-miterlimit="10" stroke-opacity="1" fill="#FFFFFF" fill-rule="evenodd" fill-opacity="1" transform="matrix(1.00058 0 0 1 -174.465 -114.545)"/><text fill="#000000" fill-opacity="1" font-family="Arial,Arial_MSFontService,sans-serif" font-style="normal" font-variant="normal" font-weight="400" font-stretch="normal" font-size="16" text-anchor="start" direction="ltr" writing-mode="lr-tb" unicode-bidi="normal" text-decoration="none" transform="matrix(0.636735 0 0 0.636364 198.03 249)">Policy-’n’: <tspan fill="#000000" fill-opacity="1" font-family="Arial,Arial_MSFontService,sans-serif" font-style="normal" font-variant="normal" font-weight="400" font-stretch="normal" font-size="14" text-anchor="start" direction="ltr" writing-mode="lr-tb" unicode-bidi="normal" text-decoration="none" x="73" y="0">local</tspan><tspan fill="#000000" fill-opacity="1" font-family="Arial,Arial_MSFontService,sans-serif" font-style="normal" font-variant="normal" font-weight="400" font-stretch="normal" font-size="14" text-anchor="start" direction="ltr" writing-mode="lr-tb" unicode-bidi="normal" text-decoration="none" x="101.5" y="0">--</tspan><tspan fill="#000000" fill-opacity="1" font-family="Arial,Arial_MSFontService,sans-serif" font-style="normal" font-variant="normal" font-weight="400" font-stretch="normal" font-size="14" text-anchor="start" direction="ltr" writing-mode="lr-tb" unicode-bidi="normal" text-decoration="none" x="111" y="0">ep, Ingress</tspan><tspan fill="#000000" fill-opacity="1" font-family="Arial,Arial_MSFontService,sans-serif" font-style="normal" font-variant="normal" font-weight="400" font-stretch="normal" font-size="14" text-anchor="start" direction="ltr" writing-mode="lr-tb" unicode-bidi="normal" text-decoration="none" x="180.5" y="0">-</tspan><tspan fill="#000000" fill-opacity="1" font-family="Arial,Arial_MSFontService,sans-serif" font-style="normal" font-variant="normal" font-weight="400" font-stretch="normal" font-size="14" text-anchor="start" direction="ltr" writing-mode="lr-tb" unicode-bidi="normal" text-decoration="none" x="185.25" y="0">rules, Egress</tspan><tspan fill="#000000" fill-opacity="1" font-family="Arial,Arial_MSFontService,sans-serif" font-style="normal" font-variant="normal" font-weight="400" font-stretch="normal" font-size="14" text-anchor="start" direction="ltr" writing-mode="lr-tb" unicode-bidi="normal" text-decoration="none" x="267" y="0">-</tspan><tspan fill="#000000" fill-opacity="1" font-family="Arial,Arial_MSFontService,sans-serif" font-style="normal" font-variant="normal" font-weight="400" font-stretch="normal" font-size="14" text-anchor="start" direction="ltr" writing-mode="lr-tb" unicode-bidi="normal" text-decoration="none" x="271.75" y="0">rules</tspan></text><path d="M322 315.159 341.258 315.159C341.522 315.159 341.736 315.373 341.736 315.636L341.736 359.44 341.258 358.963 354.149 358.963 354.149 359.918 341.258 359.918C340.995 359.918 340.781 359.704 340.781 359.44L340.781 315.636 341.258 316.114 322 316.114ZM352.876 355.622 360.513 359.44 352.876 363.259Z" fill="#2099D8" fill-rule="nonzero" fill-opacity="1" transform="matrix(1.00058 0 0 1 -174.465 -114.545)"/><path d="M0-0.477273 19.2582-0.477273C19.5218-0.477273 19.7355-0.263591 19.7355 0L19.7355 3.75805 19.2582 3.28078 32.1489 3.28078 32.1489 4.23532 19.2582 4.23532C18.9946 4.23532 18.7809 4.02165 18.7809 3.75805L18.7809 0 19.2582 0.477273 0 0.477273ZM30.8762-0.0601289 38.5125 3.75805 30.8762 7.57623Z" fill="#2099D8" fill-rule="nonzero" fill-opacity="1" transform="matrix(1.00058 -1.22465e-16 -1.22536e-16 -1 147.722 201.031)"/><path d="M0-0.477273 19.2582-0.477273C19.5218-0.477273 19.7355-0.263591 19.7355 0L19.7355 25.5247 19.2582 25.0474 32.1489 25.0474 32.1489 26.0019 19.2582 26.0019C18.9946 26.0019 18.7809 25.7883 18.7809 25.5247L18.7809 0 19.2582 0.477273 0 0.477273ZM30.8762 21.7065 38.5125 25.5247 30.8762 29.3429Z" fill="#2099D8" fill-rule="nonzero" fill-opacity="1" transform="matrix(1.00058 -1.22465e-16 -1.22536e-16 -1 147.722 201.161)"/><path d="M448 330.909C448 329.503 449.567 328.364 451.5 328.364 453.433 328.364 455 329.503 455 330.909 455 332.315 453.433 333.455 451.5 333.455 449.567 333.455 448 332.315 448 330.909Z" fill="#434343" fill-rule="evenodd" fill-opacity="1" transform="matrix(1.00058 0 0 1 -174.465 -114.545)"/><path d="M448 338.545C448 337.14 449.567 336 451.5 336 453.433 336 455 337.14 455 338.545 455 339.951 453.433 341.091 451.5 341.091 449.567 341.091 448 339.951 448 338.545Z" fill="#434343" fill-rule="evenodd" fill-opacity="1" transform="matrix(1.00058 0 0 1 -174.465 -114.545)"/><path d="M604.617 311.983 605.561 312.127 605.417 313.07 604.474 312.926ZM608.392 312.558 609.335 312.701 609.192 313.645 608.248 313.501ZM612.167 313.133 613.11 313.277 612.966 314.22 612.023 314.077ZM615.941 313.708 616.885 313.852 616.741 314.796 615.798 314.652ZM619.716 314.283 620.659 314.427 620.516 315.371 619.572 315.227ZM623.491 314.859 624.434 315.003 624.29 315.946 623.347 315.802ZM627.265 315.434 628.209 315.578 628.065 316.522 627.121 316.378ZM631.04 316.009 631.984 316.153 631.84 317.097 630.896 316.953ZM634.814 316.585 635.758 316.728 635.614 317.672 634.67 317.528ZM638.591 317.16 639.533 317.304 639.386 318.247 638.445 318.104ZM642.365 317.735 643.306 317.879 643.166 318.823 642.218 318.679ZM646.138 318.31 647.08 318.454 646.94 319.398 645.992 319.254ZM649.912 318.886 650.854 319.029 650.714 319.973 649.772 319.829ZM653.685 319.461 654.156 319.532 654.01 320.476 653.545 320.405ZM653.399 316.038 660.374 320.963 652.254 323.587Z" fill="#2099D8" fill-rule="nonzero" fill-opacity="1" transform="matrix(1.00058 0 0 1 -174.465 -114.545)"/><path d="M0.27343-0.391185 1.0558 0.155674 0.508941 0.938044-0.27343 0.391185ZM3.40291 1.79625 4.18528 2.34311 3.63842 3.12547 2.85605 2.57862ZM6.5324 3.98368 7.31475 4.53054 6.76792 5.31291 5.98553 4.76605ZM9.66185 6.17112 10.4443 6.71796 9.89736 7.50037 9.11502 6.95348ZM12.7914 8.35857 13.5737 8.9054 13.0269 9.68781 12.2445 9.14092ZM15.9208 10.546 16.7032 11.0928 16.1563 11.8752 15.374 11.3284ZM19.0503 12.7334 19.8327 13.2803 19.2858 14.0626 18.5035 13.5158ZM22.1798 14.9209 22.9622 15.4677 22.4153 16.2501 21.6329 15.7032ZM25.3093 17.1083 26.0916 17.6551 25.5448 18.4375 24.7624 17.8907ZM28.4388 19.2957 29.2211 19.8426 28.6743 20.6249 27.8919 20.0781ZM31.5682 21.4831 32.3506 22.03 31.8037 22.8124 31.0214 22.2655ZM34.6977 23.6706 35.4801 24.2175 34.9332 24.9998 34.1508 24.453ZM37.8272 25.858 38.6096 26.4049 38.0627 27.1872 37.2803 26.6404ZM40.9567 28.0454 41.739 28.5923 41.1922 29.3747 40.4098 28.8278ZM44.0861 30.2329 44.8685 30.7798 44.3216 31.5621 43.5393 31.0153ZM47.2156 32.4203 47.998 32.9672 47.4512 33.7495 46.6687 33.2027ZM50.3451 34.6077 50.8873 34.9867 50.3404 35.7691 49.7983 35.3902ZM51.7581 31.5193 55.8296 39.0236 47.3833 37.7782Z" fill="#2099D8" fill-rule="nonzero" fill-opacity="1" transform="matrix(1.00058 -1.22465e-16 -1.22536e-16 -1 430.433 245.206)"/><path d="M604.773 289.762 605.612 290.217 605.157 291.057 604.318 290.601ZM608.129 291.584 608.968 292.039 608.513 292.878 607.673 292.423ZM611.484 293.406 612.324 293.861 611.868 294.699 611.029 294.244ZM614.84 295.227 615.679 295.683 615.224 296.521 614.385 296.066ZM618.196 297.048 619.035 297.504 618.579 298.343 617.74 297.888ZM621.552 298.87 622.39 299.325 621.935 300.164 621.096 299.709ZM624.907 300.691 625.746 301.147 625.291 301.986 624.452 301.53ZM628.263 302.513 629.102 302.968 628.646 303.807 627.808 303.352ZM631.619 304.335 632.458 304.79 632.002 305.629 631.163 305.173ZM634.974 306.156 635.813 306.611 635.358 307.45 634.519 306.995ZM638.33 307.977 639.17 308.433 638.712 309.271 637.872 308.816ZM641.684 309.799 642.524 310.254 642.072 311.093 641.232 310.638ZM645.044 311.62 645.877 312.076 645.425 312.915 644.585 312.46ZM648.397 313.442 649.237 313.897 648.779 314.736 647.939 314.281ZM651.751 315.263 652.591 315.719 652.139 316.558 651.299 316.102ZM655.486 313.488 660.374 320.487 651.84 320.2Z" fill="#2099D8" fill-rule="nonzero" fill-opacity="1" transform="matrix(1.00058 0 0 1 -174.465 -114.545)"/><path d="M659.909 245.213C659.909 236.309 667.125 229.091 676.028 229.091L740.517 229.091C749.42 229.091 756.636 236.309 756.636 245.213L756.636 396.242C756.636 405.146 749.42 412.364 740.517 412.364L676.028 412.364C667.125 412.364 659.909 405.146 659.909 396.242Z" stroke="#2099D8" stroke-width="0.954545" stroke-linecap="butt" stroke-linejoin="round" stroke-miterlimit="10" stroke-opacity="1" fill="#FFFFFF" fill-rule="evenodd" fill-opacity="1" transform="matrix(1.00058 0 0 1 -174.465 -114.545)"/><text fill="#000000" fill-opacity="1" font-family="Arial,Arial_MSFontService,sans-serif" font-style="normal" font-variant="normal" font-weight="700" font-stretch="normal" font-size="14" text-anchor="start" direction="ltr" writing-mode="lr-tb" unicode-bidi="normal" text-decoration="none" transform="matrix(0.636735 0 0 0.636364 499.9 124)">Server:<tspan fill="#000000" fill-opacity="1" font-family="Arial,Arial_MSFontService,sans-serif" font-style="normal" font-variant="normal" font-weight="400" font-stretch="normal" font-size="14" text-anchor="start" direction="ltr" writing-mode="lr-tb" unicode-bidi="normal" text-decoration="none" x="0" y="15.7143">-</tspan><tspan fill="#000000" fill-opacity="1" font-family="Arial,Arial_MSFontService,sans-serif" font-style="normal" font-variant="normal" font-weight="400" font-stretch="normal" font-size="14" text-anchor="start" direction="ltr" writing-mode="lr-tb" unicode-bidi="normal" text-decoration="none" x="8.74997" y="15.7143">Name, Algorithm</tspan><tspan fill="#000000" fill-opacity="1" font-family="Arial,Arial_MSFontService,sans-serif" font-style="normal" font-variant="normal" font-weight="400" font-stretch="normal" font-size="14" text-anchor="start" direction="ltr" writing-mode="lr-tb" unicode-bidi="normal" text-decoration="none" x="0" y="34.5714">-</tspan><tspan fill="#000000" fill-opacity="1" font-family="Arial,Arial_MSFontService,sans-serif" font-style="normal" font-variant="normal" font-weight="400" font-stretch="normal" font-size="14" text-anchor="start" direction="ltr" writing-mode="lr-tb" unicode-bidi="normal" text-decoration="none" x="8.74997" y="34.5714">Expression </tspan><tspan fill="#000000" fill-opacity="1" font-family="Arial,Arial_MSFontService,sans-serif" font-style="normal" font-variant="normal" font-weight="700" font-stretch="normal" font-size="14" text-anchor="start" direction="ltr" writing-mode="lr-tb" unicode-bidi="normal" text-decoration="none" x="0" y="50.2857">Select</tspan><tspan fill="#000000" fill-opacity="1" font-family="Arial,Arial_MSFontService,sans-serif" font-style="normal" font-variant="normal" font-weight="700" font-stretch="normal" font-size="14" text-anchor="start" direction="ltr" writing-mode="lr-tb" unicode-bidi="normal" text-decoration="none" x="41" y="50.2857">-rules:</tspan><tspan fill="#000000" fill-opacity="1" font-family="Arial,Arial_MSFontService,sans-serif" font-style="normal" font-variant="normal" font-weight="400" font-stretch="normal" font-size="14" text-anchor="start" direction="ltr" writing-mode="lr-tb" unicode-bidi="normal" text-decoration="none" x="0" y="66">-</tspan><tspan fill="#000000" fill-opacity="1" font-family="Arial,Arial_MSFontService,sans-serif" font-style="normal" font-variant="normal" font-weight="400" font-stretch="normal" font-size="14" text-anchor="start" direction="ltr" writing-mode="lr-tb" unicode-bidi="normal" text-decoration="none" x="8.74997" y="66">Rule</tspan><tspan fill="#000000" fill-opacity="1" font-family="Arial,Arial_MSFontService,sans-serif" font-style="normal" font-variant="normal" font-weight="400" font-stretch="normal" font-size="14" text-anchor="start" direction="ltr" writing-mode="lr-tb" unicode-bidi="normal" text-decoration="none" x="37.25" y="66">-</tspan><tspan fill="#000000" fill-opacity="1" font-family="Arial,Arial_MSFontService,sans-serif" font-style="normal" font-variant="normal" font-weight="400" font-stretch="normal" font-size="14" text-anchor="start" direction="ltr" writing-mode="lr-tb" unicode-bidi="normal" text-decoration="none" x="42" y="66">1/2/4</tspan><tspan fill="#000000" fill-opacity="1" font-family="Arial,Arial_MSFontService,sans-serif" font-style="normal" font-variant="normal" font-weight="700" font-stretch="normal" font-size="14" text-anchor="start" direction="ltr" writing-mode="lr-tb" unicode-bidi="normal" text-decoration="none" x="0" y="84.8571">Exact &amp; Regex </tspan><tspan fill="#000000" fill-opacity="1" font-family="Arial,Arial_MSFontService,sans-serif" font-style="normal" font-variant="normal" font-weight="700" font-stretch="normal" font-size="14" text-anchor="start" direction="ltr" writing-mode="lr-tb" unicode-bidi="normal" text-decoration="none" x="0" y="100.571">Values</tspan><tspan fill="#000000" fill-opacity="1" font-family="Arial,Arial_MSFontService,sans-serif" font-style="normal" font-variant="normal" font-weight="700" font-stretch="normal" font-size="14" text-anchor="start" direction="ltr" writing-mode="lr-tb" unicode-bidi="normal" text-decoration="none" x="0" y="117.857">Client:</tspan><tspan fill="#000000" fill-opacity="1" font-family="Arial,Arial_MSFontService,sans-serif" font-style="normal" font-variant="normal" font-weight="400" font-stretch="normal" font-size="14" text-anchor="start" direction="ltr" writing-mode="lr-tb" unicode-bidi="normal" text-decoration="none" x="0" y="133.571">-</tspan><tspan fill="#000000" fill-opacity="1" font-family="Arial,Arial_MSFontService,sans-serif" font-style="normal" font-variant="normal" font-weight="400" font-stretch="normal" font-size="14" text-anchor="start" direction="ltr" writing-mode="lr-tb" unicode-bidi="normal" text-decoration="none" x="8.74997" y="133.571">Name, Name </tspan><tspan fill="#000000" fill-opacity="1" font-family="Arial,Arial_MSFontService,sans-serif" font-style="normal" font-variant="normal" font-weight="400" font-stretch="normal" font-size="14" text-anchor="start" direction="ltr" writing-mode="lr-tb" unicode-bidi="normal" text-decoration="none" x="0" y="150.857">matcher</tspan><tspan fill="#000000" fill-opacity="1" font-family="Arial,Arial_MSFontService,sans-serif" font-style="normal" font-variant="normal" font-weight="400" font-stretch="normal" font-size="14" text-anchor="start" direction="ltr" writing-mode="lr-tb" unicode-bidi="normal" text-decoration="none" x="0" y="168.143">-</tspan><tspan fill="#000000" fill-opacity="1" font-family="Arial,Arial_MSFontService,sans-serif" font-style="normal" font-variant="normal" font-weight="400" font-stretch="normal" font-size="14" text-anchor="start" direction="ltr" writing-mode="lr-tb" unicode-bidi="normal" text-decoration="none" x="8.74997" y="168.143">Label selector</tspan><tspan fill="#000000" fill-opacity="1" font-family="Arial,Arial_MSFontService,sans-serif" font-style="normal" font-variant="normal" font-weight="400" font-stretch="normal" font-size="14" text-anchor="start" direction="ltr" writing-mode="lr-tb" unicode-bidi="normal" text-decoration="none" x="0" y="183.857">-</tspan><tspan fill="#000000" fill-opacity="1" font-family="Arial,Arial_MSFontService,sans-serif" font-style="normal" font-variant="normal" font-weight="400" font-stretch="normal" font-size="14" text-anchor="start" direction="ltr" writing-mode="lr-tb" unicode-bidi="normal" text-decoration="none" x="8.74997" y="183.857">Role</tspan><tspan fill="#000000" fill-opacity="1" font-family="Arial,Arial_MSFontService,sans-serif" font-style="normal" font-variant="normal" font-weight="700" font-stretch="normal" font-size="14" text-anchor="start" direction="ltr" writing-mode="lr-tb" unicode-bidi="normal" text-decoration="none" x="0" y="202.714">HTTP/HTTPs </tspan><tspan fill="#000000" fill-opacity="1" font-family="Arial,Arial_MSFontService,sans-serif" font-style="normal" font-variant="normal" font-weight="400" font-stretch="normal" font-size="14" text-anchor="start" direction="ltr" writing-mode="lr-tb" unicode-bidi="normal" text-decoration="none" x="0" y="218.429">-</tspan><tspan fill="#000000" fill-opacity="1" font-family="Arial,Arial_MSFontService,sans-serif" font-style="normal" font-variant="normal" font-weight="400" font-stretch="normal" font-size="14" text-anchor="start" direction="ltr" writing-mode="lr-tb" unicode-bidi="normal" text-decoration="none" x="8.74997" y="218.429">Method, Header</tspan><tspan fill="#000000" fill-opacity="1" font-family="Arial,Arial_MSFontService,sans-serif" font-style="normal" font-variant="normal" font-weight="400" font-stretch="normal" font-size="14" text-anchor="start" direction="ltr" writing-mode="lr-tb" unicode-bidi="normal" text-decoration="none" x="0" y="234.143">-</tspan><tspan fill="#000000" fill-opacity="1" font-family="Arial,Arial_MSFontService,sans-serif" font-style="normal" font-variant="normal" font-weight="400" font-stretch="normal" font-size="14" text-anchor="start" direction="ltr" writing-mode="lr-tb" unicode-bidi="normal" text-decoration="none" x="8.74997" y="234.143">Path, Query</tspan><tspan fill="#000000" fill-opacity="1" font-family="Arial,Arial_MSFontService,sans-serif" font-style="normal" font-variant="normal" font-weight="700" font-stretch="normal" font-size="14" text-anchor="start" direction="ltr" writing-mode="lr-tb" unicode-bidi="normal" text-decoration="none" x="0" y="251.429">Action</tspan><tspan fill="#000000" fill-opacity="1" font-family="Arial,Arial_MSFontService,sans-serif" font-style="normal" font-variant="normal" font-weight="400" font-stretch="normal" font-size="14" text-anchor="start" direction="ltr" writing-mode="lr-tb" unicode-bidi="normal" text-decoration="none" x="0" y="268.714">-</tspan><tspan fill="#000000" fill-opacity="1" font-family="Arial,Arial_MSFontService,sans-serif" font-style="normal" font-variant="normal" font-weight="400" font-stretch="normal" font-size="14" text-anchor="start" direction="ltr" writing-mode="lr-tb" unicode-bidi="normal" text-decoration="none" x="8.74997" y="268.714">Allow/Deny</tspan></text><path d="M392.965 185.818 528.49 185.818C546.244 185.818 560.636 189.807 560.636 194.727 560.636 199.648 546.244 203.636 528.49 203.636L392.965 203.636C375.211 203.636 360.818 199.648 360.818 194.727 360.818 189.807 375.211 185.818 392.965 185.818Z" stroke="#F37543" stroke-width="0.954545" stroke-linecap="butt" stroke-linejoin="round" stroke-miterlimit="10" stroke-opacity="1" fill="#FFFFFF" fill-rule="evenodd" fill-opacity="1" transform="matrix(1.00058 0 0 1 -174.465 -114.545)"/><text fill="#000000" fill-opacity="1" font-family="Arial,Arial_MSFontService,sans-serif" font-style="normal" font-variant="normal" font-weight="400" font-stretch="normal" font-size="16" text-anchor="start" direction="ltr" writing-mode="lr-tb" unicode-bidi="normal" text-decoration="none" transform="matrix(0.636735 0 0 0.636364 195.965 84)">PolicySet-1: <tspan fill="#000000" fill-opacity="1" font-family="Arial,Arial_MSFontService,sans-serif" font-style="normal" font-variant="normal" font-weight="400" font-stretch="normal" font-size="14" text-anchor="start" direction="ltr" writing-mode="lr-tb" unicode-bidi="normal" text-decoration="none" x="90.25" y="0">Policy</tspan><tspan fill="#000000" fill-opacity="1" font-family="Arial,Arial_MSFontService,sans-serif" font-style="normal" font-variant="normal" font-weight="400" font-stretch="normal" font-size="14" text-anchor="start" direction="ltr" writing-mode="lr-tb" unicode-bidi="normal" text-decoration="none" x="127.25" y="0">-</tspan><tspan fill="#000000" fill-opacity="1" font-family="Arial,Arial_MSFontService,sans-serif" font-style="normal" font-variant="normal" font-weight="400" font-stretch="normal" font-size="14" text-anchor="start" direction="ltr" writing-mode="lr-tb" unicode-bidi="normal" text-decoration="none" x="132" y="0">1/2/3, Policy</tspan><tspan fill="#000000" fill-opacity="1" font-family="Arial,Arial_MSFontService,sans-serif" font-style="normal" font-variant="normal" font-weight="400" font-stretch="normal" font-size="14" text-anchor="start" direction="ltr" writing-mode="lr-tb" unicode-bidi="normal" text-decoration="none" x="208.25" y="0">-</tspan><tspan fill="#000000" fill-opacity="1" font-family="Arial,Arial_MSFontService,sans-serif" font-style="normal" font-variant="normal" font-weight="400" font-stretch="normal" font-size="14" text-anchor="start" direction="ltr" writing-mode="lr-tb" unicode-bidi="normal" text-decoration="none" x="213" y="0">10</tspan></text><path d="M392.965 207.455 528.49 207.455C546.244 207.455 560.636 211.443 560.636 216.364 560.636 221.284 546.244 225.273 528.49 225.273L392.965 225.273C375.211 225.273 360.818 221.284 360.818 216.364 360.818 211.443 375.211 207.455 392.965 207.455Z" stroke="#F37543" stroke-width="0.954545" stroke-linecap="butt" stroke-linejoin="round" stroke-miterlimit="10" stroke-opacity="1" fill="#FFFFFF" fill-rule="evenodd" fill-opacity="1" transform="matrix(1.00058 0 0 1 -174.465 -114.545)"/><text fill="#000000" fill-opacity="1" font-family="Arial,Arial_MSFontService,sans-serif" font-style="normal" font-variant="normal" font-weight="400" font-stretch="normal" font-size="16" text-anchor="start" direction="ltr" writing-mode="lr-tb" unicode-bidi="normal" text-decoration="none" transform="matrix(0.636735 0 0 0.636364 195.965 106)">PolicySet-2: <tspan fill="#000000" fill-opacity="1" font-family="Arial,Arial_MSFontService,sans-serif" font-style="normal" font-variant="normal" font-weight="400" font-stretch="normal" font-size="14" text-anchor="start" direction="ltr" writing-mode="lr-tb" unicode-bidi="normal" text-decoration="none" x="90.25" y="0">Policy</tspan><tspan fill="#000000" fill-opacity="1" font-family="Arial,Arial_MSFontService,sans-serif" font-style="normal" font-variant="normal" font-weight="400" font-stretch="normal" font-size="14" text-anchor="start" direction="ltr" writing-mode="lr-tb" unicode-bidi="normal" text-decoration="none" x="127.25" y="0">-</tspan><tspan fill="#000000" fill-opacity="1" font-family="Arial,Arial_MSFontService,sans-serif" font-style="normal" font-variant="normal" font-weight="400" font-stretch="normal" font-size="14" text-anchor="start" direction="ltr" writing-mode="lr-tb" unicode-bidi="normal" text-decoration="none" x="132" y="0">4/5/6, Policy</tspan><tspan fill="#000000" fill-opacity="1" font-family="Arial,Arial_MSFontService,sans-serif" font-style="normal" font-variant="normal" font-weight="400" font-stretch="normal" font-size="14" text-anchor="start" direction="ltr" writing-mode="lr-tb" unicode-bidi="normal" text-decoration="none" x="208.25" y="0">-</tspan><tspan fill="#000000" fill-opacity="1" font-family="Arial,Arial_MSFontService,sans-serif" font-style="normal" font-variant="normal" font-weight="400" font-stretch="normal" font-size="14" text-anchor="start" direction="ltr" writing-mode="lr-tb" unicode-bidi="normal" text-decoration="none" x="213" y="0">11</tspan></text><path d="M392.965 246.909 528.49 246.909C546.244 246.909 560.636 250.898 560.636 255.818 560.636 260.739 546.244 264.727 528.49 264.727L392.965 264.727C375.211 264.727 360.818 260.739 360.818 255.818 360.818 250.898 375.211 246.909 392.965 246.909Z" stroke="#F37543" stroke-width="0.954545" stroke-linecap="butt" stroke-linejoin="round" stroke-miterlimit="10" stroke-opacity="1" fill="#FFFFFF" fill-rule="evenodd" fill-opacity="1" transform="matrix(1.00058 0 0 1 -174.465 -114.545)"/><text fill="#000000" fill-opacity="1" font-family="Arial,Arial_MSFontService,sans-serif" font-style="normal" font-variant="normal" font-weight="400" font-stretch="normal" font-size="16" text-anchor="start" direction="ltr" writing-mode="lr-tb" unicode-bidi="normal" text-decoration="none" transform="matrix(0.636735 0 0 0.636364 195.965 145)">PolicySet-’n’: <tspan fill="#000000" fill-opacity="1" font-family="Arial,Arial_MSFontService,sans-serif" font-style="normal" font-variant="normal" font-weight="400" font-stretch="normal" font-size="14" text-anchor="start" direction="ltr" writing-mode="lr-tb" unicode-bidi="normal" text-decoration="none" x="97.25" y="0">Policy</tspan><tspan fill="#000000" fill-opacity="1" font-family="Arial,Arial_MSFontService,sans-serif" font-style="normal" font-variant="normal" font-weight="400" font-stretch="normal" font-size="14" text-anchor="start" direction="ltr" writing-mode="lr-tb" unicode-bidi="normal" text-decoration="none" x="134.25" y="0">-</tspan><tspan fill="#000000" fill-opacity="1" font-family="Arial,Arial_MSFontService,sans-serif" font-style="normal" font-variant="normal" font-weight="400" font-stretch="normal" font-size="14" text-anchor="start" direction="ltr" writing-mode="lr-tb" unicode-bidi="normal" text-decoration="none" x="139" y="0">4/5/6, Policy</tspan><tspan fill="#000000" fill-opacity="1" font-family="Arial,Arial_MSFontService,sans-serif" font-style="normal" font-variant="normal" font-weight="400" font-stretch="normal" font-size="14" text-anchor="start" direction="ltr" writing-mode="lr-tb" unicode-bidi="normal" text-decoration="none" x="215.25" y="0">-</tspan><tspan fill="#000000" fill-opacity="1" font-family="Arial,Arial_MSFontService,sans-serif" font-style="normal" font-variant="normal" font-weight="400" font-stretch="normal" font-size="14" text-anchor="start" direction="ltr" writing-mode="lr-tb" unicode-bidi="normal" text-decoration="none" x="220" y="0">11</tspan></text><path d="M448 231.636C448 230.231 449.567 229.091 451.5 229.091 453.433 229.091 455 230.231 455 231.636 455 233.042 453.433 234.182 451.5 234.182 449.567 234.182 448 233.042 448 231.636Z" fill="#434343" fill-rule="evenodd" fill-opacity="1" transform="matrix(1.00058 0 0 1 -174.465 -114.545)"/><path d="M448 239.273C448 237.867 449.567 236.727 451.5 236.727 453.433 236.727 455 237.867 455 239.273 455 240.678 453.433 241.818 451.5 241.818 449.567 241.818 448 240.678 448 239.273Z" fill="#434343" fill-rule="evenodd" fill-opacity="1" transform="matrix(1.00058 0 0 1 -174.465 -114.545)"/><path d="M0-0.477273 19.2582-0.477273C19.5218-0.477273 19.7355-0.263591 19.7355 0L19.7355 26.8776 19.2582 26.4003 32.1489 26.4003 32.1489 27.3549 19.2582 27.3549C18.9946 27.3549 18.7809 27.1412 18.7809 26.8776L18.7809 0 19.2582 0.477273 0 0.477273ZM30.8762 23.0594 38.5125 26.8776 30.8762 30.6958Z" fill="#F37543" fill-rule="nonzero" fill-opacity="1" transform="matrix(1.00058 -1.22465e-16 -1.22536e-16 -1 147.722 107.059)"/><path d="M0-0.477273 19.2582-0.477273C19.5218-0.477273 19.7355-0.263591 19.7355 0L19.7355 5.14102 19.2582 4.66374 32.1489 4.66374 32.1489 5.61829 19.2582 5.61829C18.9946 5.61829 18.7809 5.4046 18.7809 5.14102L18.7809 0 19.2582 0.477273 0 0.477273ZM30.8762 1.32283 38.5125 5.14102 30.8762 8.95917Z" fill="#F37543" fill-rule="nonzero" fill-opacity="1" transform="matrix(1.00058 -1.22465e-16 -1.22536e-16 -1 147.722 106.959)"/><path d="M322 220.977 341.258 220.977C341.522 220.977 341.736 221.191 341.736 221.455L341.736 255.668 341.258 255.191 354.149 255.191 354.149 256.145 341.258 256.145C340.995 256.145 340.781 255.931 340.781 255.668L340.781 221.455 341.258 221.932 322 221.932ZM352.876 251.85 360.513 255.668 352.876 259.486Z" fill="#F37543" fill-rule="nonzero" fill-opacity="1" transform="matrix(1.00058 0 0 1 -174.465 -114.545)"/><path d="M266 301.759 266 252.955 267.909 252.955 267.909 301.759ZM263.136 254.227 266.955 246.591 270.773 254.227Z" fill="#434343" fill-rule="nonzero" fill-opacity="1" transform="matrix(1.00058 0 0 1 -174.465 -114.545)"/></g></svg>